<?xml version="1.0" encoding="UTF-8" standalone="no"?>
<svg
   xmlns:dc="http://purl.org/dc/elements/1.1/"
   xmlns:cc="http://creativecommons.org/ns#"
   xmlns:rdf="http://www.w3.org/1999/02/22-rdf-syntax-ns#"
   xmlns:svg="http://www.w3.org/2000/svg"
   xmlns="http://www.w3.org/2000/svg"
   viewBox="0 0 100 99.999999"
   height="100"
   width="100"
   xml:space="preserve"
   id="svg5026"
   version="1.1"><metadata
     id="metadata5032"><rdf:RDF><cc:Work
         rdf:about=""><dc:format>image/svg+xml</dc:format><dc:type
           rdf:resource="http://purl.org/dc/dcmitype/StillImage" /><dc:title></dc:title></cc:Work></rdf:RDF></metadata><defs
     id="defs5030" /><g
     transform="matrix(1.3333333,0,0,-1.3333333,0,99.999976)"
     id="g5034"><g
       transform="matrix(0.1526543,0,0,0.1526543,5.2611704,0.14530744)"
       id="g2673"><path
         id="path5038"
         style="fill:#1969bc;fill-opacity:1;fill-rule:evenodd;stroke:none;stroke-width:0.1"
         d="m 260.207,199.675 c 0,-12.398 0,-18.414 0,-18.414 -2.428,-5.031 -5.102,-9.876 -8.003,-14.513 0.05,-0.196 0.116,-0.393 0.2,-0.591 1.102,-2.571 2.225,-5.184 3.348,-7.691 2.364,-5.284 4.489,-10.964 6.998,-16.057 1.365,-2.769 1.94,-6.709 3.927,-8.572 1.963,-1.842 5.363,2.366 7.779,3.816 4.175,2.505 8.636,7.236 11.853,10.927 2.112,2.422 6.541,5.957 4.463,8.731 -2.402,3.205 -5.733,5.956 -8.669,8.872 -5.45,5.412 -10.482,11.02 -16.463,16.302 -2.691,2.377 -4.187,5.985 -0.283,7.803 3.946,1.839 5.83,3.719 9.196,5.358 3.245,1.58 5.886,3.339 8.863,4.961 1.102,0.601 2.545,1.294 2.897,2.033 0.312,0.653 -2.527,0.459 -3.003,0.396 -1.171,-0.153 -8.132,0.191 -6.001,1.02 2.018,0.785 4.929,1.222 7.441,1.575 5.523,0.776 10.968,2.012 16.309,4.239 3.286,1.37 5.706,2.729 9.338,5.25 2.953,2.05 -1.724,2.185 -4.39,2.132 -1.675,-0.034 -3.786,0.482 -5.21,0.4 -1.027,-0.059 -3.787,0.427 -3.138,1.188 1.287,1.509 4.793,0.518 7.171,1.032 5.565,1.203 11.958,1.157 17.434,2.883 2.978,0.939 6.495,2.262 8.686,3.677 1.922,1.242 6.824,4.971 3.965,5.174 -5.886,0.419 -11.638,0.419 -17.645,0.416 -2.914,-0.002 -6.694,1.668 -2.797,2.547 3.444,0.776 5.379,-0.048 7.831,0.302 11.379,1.62 24.279,0.011 32.82,9.279 2.17,2.354 -4.313,1.472 -6.57,1.641 -2.234,0.167 -5.944,-0.007 -8.649,0.05 -2.705,0.057 -6.022,-0.117 -8.703,0.138 -1.255,0.119 -3.295,-0.189 -3.833,0.73 -0.487,0.832 1.349,1.618 2.567,1.734 11.318,1.082 23.328,-1.166 34.209,3.159 3.391,1.348 5.951,2.934 8.744,6.504 2.376,3.038 -2.378,2.395 -5.357,2.467 -5.3,0.13 -10.926,-0.035 -16.261,0.236 -2.873,0.147 -6.09,-0.765 -8.772,0.4 -2.388,1.038 2.854,1.707 5.179,2 4.854,0.612 10.859,0.475 16.151,0.464 5.816,-0.012 12.189,0.648 17.346,3.157 3.103,1.51 6.748,4.231 7.482,7.157 0.489,1.949 -4.103,0.741 -6.192,0.918 -5.111,0.433 -12.109,0.75 -17.181,0.75 -2.422,0.001 -8.185,-0.124 -6.296,1.476 1.723,1.459 4.944,1.187 7.406,1.448 5.643,0.598 11.751,-0.265 17.499,0.568 6.145,0.891 12.443,2.057 16.646,7.623 2.144,2.839 -4.043,2.087 -6.693,2.085 -2.083,-0.001 -5.017,-0.02 -7.465,0.137 -5.305,0.339 -10.919,-0.038 -16.282,0.397 -2.892,0.236 -6.001,0.066 -8.762,-0.078 -1.575,-0.083 -4.466,0.939 -2.62,1.901 1.387,0.722 2.603,0.033 3.839,0.257 5.361,0.976 10.938,1.066 16.308,1.338 5.898,0.299 12.195,0.979 17.845,1.587 5.47,0.588 12.554,1.955 14.69,7.517 2.146,5.59 -9.215,1.972 -13.948,2.665 -4.413,0.646 -10.891,0.141 -16.148,0.174 -10.514,0.065 -21.911,0.219 -32.571,0.03 -22.483,-0.398 -47.381,3.972 -66.605,-9.751 -11.072,-7.903 -20.705,-16.69 -29.964,-25.635 -4.405,-4.256 -10.981,-11.563 -14.591,-5.336 -3.265,5.632 -3.035,10.821 -4.491,16.485 -1.518,5.903 -1.658,11.493 -2.525,17.625 -0.471,3.333 -0.014,5.646 2.762,8.932 2.295,2.715 -1.16,2.674 -3.913,2.715 -6.101,0.092 -11.462,1.451 -17.647,1.513 -6.518,0.066 -11.54,-4.538 -15.115,-9.344 -1.745,-2.348 -6.1,-0.164 -8.781,-0.482 -2.932,-0.348 -7.13,-1.911 -7.715,-4.632 -0.752,-3.504 -1.038,-5.633 1.859,-9.11 2.75,-3.301 -0.044,2.345 2.475,3.89 4.683,2.87 10.719,1.205 16.027,1.764 1.883,0.199 3.712,0.32 5.447,2.097 1.344,1.378 -0.067,1.724 -1.527,2.094 -1.551,0.393 -3.457,1.566 -2.633,2.917 0.676,1.107 2.921,0.448 3.859,0.979 4.516,2.557 14.146,2.222 16.789,-3.542 2.32,-5.058 1.468,-10.77 2.493,-16.233 1.109,-5.913 1.239,-11.499 3.205,-17.633 1.227,-3.83 -7.849,-4.607 -12.51,-4.368 -6.181,0.318 -16.168,2.618 -16.045,3.107 1.45,5.758 3.62,10.858 5.178,16.421 0.942,3.365 0.478,7.385 -3.115,8.572 -2.618,0.864 -4.946,1.615 -7.286,1.685 -2.509,0.075 -8.188,1.315 -7.093,-1.385 1.031,-2.543 5.01,-3.054 7.087,-4.611 4.789,-3.591 -1.837,-11.8 -4.131,-16.578 -1.248,-2.599 -5.38,-5.793 -8.579,-4.945 -2.843,0.754 -5.14,3.303 -7.498,5.365 -10.842,9.479 -20.794,20.011 -32.733,28.25 -9.936,6.857 -21.804,10.233 -33.879,9.844 -10.9425,-0.353 -21.7737,0.016 -32.6745,-0.069 -11.3199,-0.088 -22.6184,0.009 -33.9199,-0.011 -5.4414,-0.009 -10.9285,-0.024 -16.3129,-0.029 -2.9004,-0.003 -6.0793,0.028 -8.7195,0.023 -2.2129,-0.005 -6.56411,0.336 -5.1907,-2.064 3.5785,-6.254 9.9703,-8.128 16.375,-8.348 5.4746,-0.188 10.8703,-1.363 16.3379,-1.258 5.4574,0.105 10.9528,-1.685 16.2762,-0.99 3.0113,0.394 8.1996,-2.169 4.1187,-2.568 -3.3207,-0.326 -5.1492,-0.01 -7.7457,-0.107 -6.0539,-0.228 -11.7281,-0.111 -17.6527,-0.245 -2.9621,-0.067 -5.8625,0.009 -8.7883,-0.116 -2.5125,-0.107 -5.0664,0.146 -7.5519,-0.188 -2.0184,-0.271 1.1558,-3.226 2.325,-4.21 0.9324,-0.784 2.6375,-2.024 4.0386,-2.582 2.6614,-1.063 5.6325,-2.382 8.7219,-2.563 5.4524,-0.32 10.8117,-1.385 16.334,-1.119 2.9613,0.143 5.7797,-0.444 8.8188,-0.218 1.7332,0.128 3.8035,-1.232 1.6289,-1.997 -1.7653,-0.621 -2.7641,-0.461 -4.1375,-0.544 -5.5063,-0.331 -10.9446,0.026 -16.3383,-0.238 -1.6606,-0.08 -3.625,-0.007 -4.9196,-0.202 -0.9382,-0.141 -3.5343,0.381 -3.6613,-0.575 -0.3597,-2.71 3.4426,-5.133 6.191,-7.216 4.5082,-3.416 10.3395,-2.431 16.3246,-3.154 6.259,-0.756 10.1446,-0.824 18.1422,-2.014 7.5153,-1.119 -1.4808,-2.326 -7.0601,-2.044 -5.8922,0.298 -11.3727,0.271 -17.6922,0.136 -3.9449,-0.085 1.5922,-5.423 4.0383,-6.864 1.8558,-1.093 4.8593,-2.469 7.4461,-3.238 5.5152,-1.639 11.8015,-0.817 17.5765,-1.121 2.8617,-0.151 6.0766,0.313 8.7485,-0.37 2.3078,-0.59 5.6836,-0.06 7.3894,-1.27 1.8414,-1.305 -4.2269,-1.339 -6.2144,-1.209 -1.8243,0.12 -5.2379,-0.085 -7.4012,-0.063 -2.5246,0.025 -6.4734,-0.062 -8.5805,-0.175 -1.773,-0.094 -7.4308,0.715 -6.2328,-1.362 3.2879,-5.697 11.0043,-7.594 17.4129,-8.722 5.1355,-0.903 10.7977,-0.068 16.2255,-1.184 2.978,-0.613 5.265,-0.142 9.166,-0.717 3.945,-0.582 -1.287,-1.802 -4.185,-1.677 -5.257,0.228 -10.8663,-1.407 -16.2307,-0.943 -1.5485,0.134 -4.0563,-0.13 -2.4305,-1.426 1.5235,-1.214 2.209,-2.041 3.5133,-2.874 2.9223,-1.867 5.7664,-3.152 8.943,-4.182 5.3269,-1.727 10.6579,-2.319 16.3689,-2.794 3.069,-0.255 5.115,-1.043 9.068,-1.204 3.37,-0.138 -0.046,-1.745 -2.862,-1.794 -3.259,-0.057 -5.18,-0.01 -9.033,-0.249 -3.56,-0.22 0.351,-2.547 2.626,-3.772 5.395,-2.907 11.217,-6.902 17.719,-6.596 2.985,0.141 6.158,-0.536 8.726,-0.979 2.459,-0.424 7.186,-2.204 4.019,-2.848 -3.499,-0.713 -5.611,0.717 -9.096,-0.144 -1.597,-0.395 0.217,-1.111 1.479,-1.742 1.326,-0.662 2.295,-1.254 3.585,-1.975 5.706,-3.189 10.637,-5.749 16.554,-9.044 3.21,-1.787 0.399,-5.662 -1.993,-7.877 -1.991,-1.844 -3.816,-4.148 -5.812,-6.106 -5.135,-5.038 -10.31,-10.311 -15.489,-15.224 -1.874,-1.778 -4.862,-3.667 -3.166,-6.015 2.141,-2.963 3.637,-5.677 6.031,-8.007 5.432,-5.285 11.299,-10.031 17.8,-13.734 4.98,11.314 9.394,22.511 14.327,33.702 -2.807,4.518 -5.399,9.23 -7.759,14.12 v 56.357 c 0.071,-0.025 0.143,-0.045 0.217,-0.061 0.103,1.984 0.635,3.687 3.112,4.529 3.317,1.128 5.928,1.11 8.873,1.732 2.923,0.616 5.82,1.21 8.704,1.8 3.053,0.847 6.548,1.609 10.56,2.19 9.85,2.062 19.564,3.887 29.807,1.471 6.883,-1.623 9.391,-1.599 15.204,-3.375 5.345,-1.633 12.805,-2.623 18.599,-4.476 4.087,-1.307 2.593,-8.994 2.715,-16.304 0.084,-5.053 -0.405,-10.869 -0.315,-16.255 0.051,-3.057 -0.073,-6.129 -0.351,-9.194" /><path
         id="path5040"
         style="fill:#e41a30;fill-opacity:1;fill-rule:evenodd;stroke:none;stroke-width:0.1"
         d="m 212.053,0.144141 c 9.637,8.800779 17.183,18.601959 24.309,29.032459 6.822,9.9859 10.835,21.1234 18.597,30.7929 26.634,-14.2808 59.991,-0.7394 75.495,23.1762 15.252,23.5263 17.061,56.0273 2.956,80.6813 2.244,-25.827 -27.848,-50.304 -51.445,-33.582 -2.436,1.726 -3.534,2.223 -6.155,0.36 -2.442,-1.735 -3.735,-2.139 -5.807,-5.002 8.21,-7.379 18.34,-12.767 29.766,-12.794 5.316,-0.013 10.052,1.132 15.169,2.766 5.936,1.895 9.075,7.066 15.693,9.283 0.554,-20.126 -9.819,-40.7439 -27.149,-51.6631 C 286.538,62.5199 262.997,63.9555 248.65,78.8164 244.207,66.8086 240.01,57.2785 234.379,47.123 228.085,35.7695 221.162,25.191 211.688,15.6676 194.936,34.6324 184.129,56.0762 174.736,79.182 140.92,45.8797 87.9891,84.5164 93.766,125.773 c 14.864,-16.073 44.757,-16.931 59.561,1.219 -2.356,1.817 -3.282,2.51 -5.547,4.051 -2.583,1.757 -3.66,1.424 -6.024,-0.242 -23.678,-16.686 -52.4458,7.577 -52.8333,32.493 C 76.3621,139.069 78.5621,108.973 91.6883,85.5211 106.27,59.4703 141.718,46.6594 169.666,60.2391 180.807,38.5988 193.236,16.65 212.053,0.144141 v 0" /><path
         id="path5042"
         style="fill:#1969bc;fill-opacity:1;fill-rule:evenodd;stroke:none;stroke-width:0.1"
         d="m 245.794,97.1262 c -0.698,6.2618 7,4.0908 11.345,4.3218 4.148,0.221 9.302,0.006 13.704,0.125 2.402,0.065 5.117,0.011 7.527,0.019 2.035,0.007 4.501,0.349 6.105,-0.797 2.102,-1.5024 -0.091,-7.8177 2.485,-4.9473 2.193,2.4433 2.923,3.0941 3.186,6.3253 0.526,6.459 -6.075,5.12 -10.54,5.652 -4.57,0.543 -9.788,1.23 -13.681,3.802 -2.628,1.737 -5.206,4.014 -6.363,7.264 -0.833,2.339 3.395,2.61 4.3,4.697 1.015,2.344 -1.246,4.883 -2.027,7.251 -0.702,2.127 -1.84,4.335 -2.727,6.491 -1.888,4.59 -4.021,9.309 -5.909,13.738 -1.992,4.672 -3.503,11.928 -7.48,6.368 -4.271,-5.97 -6.504,-9.022 -11.562,-13.769 -4.307,-4.042 -1.421,-8.925 0.482,-13.66 1.903,-4.734 3.432,-9.527 6.277,-13.901 3.036,-4.667 10.566,4.141 13.687,-2.619 1.527,-3.308 2.498,-4.496 -1.214,-5.326 -2.937,-0.657 -3.864,-0.099 -6.376,-0.052 -5.772,0.11 -6.655,-7.473 -3.779,-10.9942 0.642,-0.7855 1.123,-2.0105 2.225,-2.2832 1.1,-0.2726 0.491,0.8954 0.335,2.2946 v 0" /><path
         id="path5044"
         style="fill:#1969bc;fill-opacity:1;fill-rule:evenodd;stroke:none;stroke-width:0.1"
         d="m 229.341,116.857 c 1.342,0.246 3.135,0.502 3.448,1.637 0.219,0.792 -0.632,1.662 -0.957,2.56 -1.753,4.838 -3.419,9.585 -5.494,14.379 -4.048,-1.368 -6.979,-4.013 -10.761,-5.808 -2.066,-0.981 -4.246,-0.939 -6.344,-0.018 -4.155,1.826 -7.518,4.43 -11.518,6.625 -3.713,-5.546 -5.218,-10.989 -6.74,-17.753 12.21,-3.331 25.773,-3.929 38.366,-1.622 v 0" /><path
         id="path5046"
         style="fill:#000000;fill-opacity:1;fill-rule:evenodd;stroke:none;stroke-width:0.1"
         d="m 211.801,135.709 c 2.458,0.064 3.056,2.135 3.034,4.112 -0.118,10.893 -0.055,21.777 -0.085,32.666 -0.016,5.444 -0.127,10.893 -0.053,16.329 0.04,2.927 -0.127,5.899 -0.007,8.772 0.108,2.591 0.344,6.227 -2.722,5.564 -3.644,-0.789 -2.356,-5.202 -2.777,-8.103 -0.337,-2.319 -0.12,-5.016 -0.171,-7.505 -0.113,-5.392 -0.163,-10.88 -0.162,-16.316 0.001,-10.455 0.161,-20.951 0.22,-31.398 0.01,-1.903 0.349,-4.183 2.723,-4.121 v 0" /><path
         id="path5048"
         style="fill:#e41a30;fill-opacity:1;fill-rule:evenodd;stroke:none;stroke-width:0.1"
         d="m 67.6113,162.514 c -6.1945,22.258 5.6211,47.407 28.1848,55.515 -3.2793,3.869 -8.2168,5.662 -11.7762,8.543 -17.1082,-7.776 -24.8969,-25.188 -30.3617,-41.724 -34.5785,19.368 -51.57148,63.5 -36.7613,100.42 -1.5809,3.564 -5.309,4.515 -7.34182,9.839 C -17.4871,244.381 17.4164,181.615 67.6113,162.514 v 0" /><path
         id="path5050"
         style="fill:#e41a30;fill-opacity:1;fill-rule:evenodd;stroke:none;stroke-width:0.1"
         d="m 415.302,291.3 c -0.742,1.77 -2.371,1.843 -3.583,0.495 -2.099,-2.336 -5.192,-4.528 -5.251,-7.499 -0.05,-2.533 1.814,-4.973 2.328,-7.564 0.977,-4.918 2.278,-9.905 2.51,-15.042 0.442,-9.796 -0.581,-19.681 -3.302,-28.921 -3.058,-10.385 -8.744,-20.143 -15.583,-28.469 -3.707,-4.515 -7.714,-9.776 -12.142,-12.836 -3.727,-2.575 -9.049,-8.648 -12.088,-5.104 -1.638,1.91 -1.248,5.441 -2.334,7.646 -1.137,2.311 -1.968,5.249 -3.213,7.683 -2.407,4.707 -5.395,9.412 -8.858,13.535 -2.065,2.458 -4.925,4.593 -7.481,6.197 -2.289,1.436 -5.206,4.074 -7.723,3.509 -2.65,-0.594 -5.352,-3.337 -7.632,-4.545 -1.1,-0.583 -3.231,-2.085 -3.143,-2.613 0.056,-0.336 0.848,-0.978 1.799,-1.317 22.093,-7.869 30.738,-33.142 26.228,-54.159 50.248,19.622 80.906,77.887 59.468,129.004 v 0" /><path
         id="path5052"
         style="fill:#e41a30;fill-opacity:1;fill-rule:evenodd;stroke:none;stroke-width:0.1"
         d="m 337.425,326.157 c 11.04,-0.471 21.62,-2.512 31.721,-6.266 5.71,-2.122 10.357,-6.542 16.147,-8.133 5.02,-1.38 10.311,0.489 16.243,-0.31 -15.338,16.949 -37.439,26.709 -60.34,27.163 -10.668,0.211 -21.294,-1.113 -31.47,-3.621 -5.13,-1.265 -9.976,-3.152 -15.097,-5.023 -2.574,-0.94 -4.41,-1.79 -7.65,-2.828 -3.285,-1.051 -3.078,2.445 -3.672,5.096 -10.019,44.674 -37.305,82.892 -58.211,122.942 -2.779,5.324 -5.555,10.775 -7.916,16.293 -1.084,2.532 -2.51,5.181 -3.349,7.628 -0.835,2.436 -2.546,6.633 -3.552,3.933 -4.2,-11.277 -8.852,-21.318 -14.215,-31.601 -5.57,-10.682 -11.429,-20.961 -17.413,-31.386 -5.743,-10.005 -11.423,-20.051 -16.624,-30.183 -5.224,-10.178 -10.288,-20.624 -14.181,-31.413 -1.794,-4.974 -3.459,-10.028 -4.975,-15.059 -1.476,-4.901 -2.207,-9.973 -3.587,-15.014 -0.801,-2.923 -5.669,0.515 -7.952,1.116 -2.05,0.54 -5.102,1.773 -7.518,2.76 -4.782,1.953 -9.957,3.437 -15.185,4.675 -9.7165,2.302 -19.9251,2.017 -30.0188,1.731 -11.0637,-0.312 -21.5219,-3.719 -31.393,-7.928 -5.2442,-2.237 -10.3078,-5.587 -14.8942,-8.874 -2.4316,-1.743 -5.2117,-4.221 -6.8769,-6.003 -1.1086,-1.186 -5.0098,-4.09 -3.166,-4.095 4.9433,-0.012 11.2859,-1.112 16.3582,0.422 5.2402,1.585 9.6937,5.807 14.9277,7.829 9.5379,3.685 19.5738,6.288 30.0805,6.678 10.7105,0.397 21.3065,-1.333 31.3565,-4.184 5.083,-1.442 10.007,-3.355 14.847,-5.62 5.336,-2.497 10.232,-5.167 15.18,-9.217 4.811,-3.938 3.216,7.277 4.238,12.057 0.912,4.264 1.716,10.012 2.911,14.855 2.498,10.118 6.047,20.293 10.116,30.036 4.485,10.739 9.822,21.149 15.437,31.479 5.52,10.152 11.247,20.01 16.855,30.116 3.004,5.413 6.015,10.885 8.921,16.29 1.331,2.473 2.514,5.376 3.845,7.45 1.354,2.111 2.06,7.063 4.274,6.679 2.094,-0.362 2.551,-4.731 3.923,-6.713 1.432,-2.07 2.484,-4.951 3.8,-7.423 2.651,-4.984 5.366,-10.107 8.153,-15.071 21.572,-38.432 46.087,-76.722 48.193,-122.731 17.605,13.856 39.023,22.439 61.729,21.468 v 0" /><path
         id="path5054"
         style="fill:#e41a30;fill-opacity:1;fill-rule:evenodd;stroke:none;stroke-width:0.1"
         d="m 203.748,317.98 c 6.583,-0.003 9.626,-0.028 16.144,0.285 -2.64,40.205 -5.438,80.367 -8.079,120.569 -2.998,-40.242 -5.212,-80.606 -8.065,-120.854 v 0" /><path
         id="path5056"
         style="fill:#e41a30;fill-opacity:1;fill-rule:evenodd;stroke:none;stroke-width:0.1"
         d="m 51.9871,225.605 5.7442,-16.4 -13.7004,10.689 -13.8219,-10.531 5.9316,16.333 -14.2867,9.891 17.3664,-0.594 4.9922,16.644 4.8016,-16.7 17.3722,0.395 -14.3992,-9.727" /><path
         id="path5058"
         style="fill:#e41a30;fill-opacity:1;fill-rule:evenodd;stroke:none;stroke-width:0.1"
         d="m 384.483,225.605 5.745,-16.4 -13.701,10.689 -13.822,-10.531 5.932,16.333 -14.287,9.891 17.367,-0.594 4.992,16.644 4.801,-16.7 17.372,0.395 -14.399,-9.727" /><path
         id="path5060"
         style="fill:#1969bc;fill-opacity:1;fill-rule:evenodd;stroke:none;stroke-width:0.1"
         d="m 170.346,209.73 c 28.291,0.226 56.246,-0.211 84.495,0.272 0.356,9.217 0.107,17.302 -0.014,26.711 -14.272,1.796 -27.375,7.826 -41.791,8.144 -15.303,0.339 -29.236,-7.253 -44.061,-9.291 -0.254,-9.506 -0.366,-16.886 -0.43,-25.818 l 1.801,-0.018" /><path
         id="path5062"
         style="fill:#ffffff;fill-opacity:1;fill-rule:evenodd;stroke:none;stroke-width:0.1"
         d="m 177.959,214.771 1.104,-3.15 -2.632,2.053 -2.654,-2.023 1.139,3.137 -2.744,1.9 3.335,-0.114 0.959,3.197 0.923,-3.208 3.336,0.076 -2.766,-1.868" /><path
         id="path5064"
         style="fill:#ffffff;fill-opacity:1;fill-rule:evenodd;stroke:none;stroke-width:0.1"
         d="m 192.273,214.771 1.103,-3.15 -2.631,2.053 -2.655,-2.023 1.139,3.137 -2.744,1.9 3.336,-0.114 0.959,3.197 0.922,-3.208 3.337,0.076 -2.766,-1.868" /><path
         id="path5066"
         style="fill:#ffffff;fill-opacity:1;fill-rule:evenodd;stroke:none;stroke-width:0.1"
         d="m 206.586,214.771 1.103,-3.15 -2.631,2.053 -2.655,-2.023 1.14,3.137 -2.745,1.9 3.336,-0.114 0.959,3.197 0.922,-3.208 3.337,0.076 -2.766,-1.868" /><path
         id="path5068"
         style="fill:#ffffff;fill-opacity:1;fill-rule:evenodd;stroke:none;stroke-width:0.1"
         d="m 220.9,214.771 1.103,-3.15 -2.632,2.053 -2.654,-2.023 1.139,3.137 -2.744,1.9 3.336,-0.114 0.958,3.197 0.923,-3.208 3.336,0.076 -2.765,-1.868" /><path
         id="path5070"
         style="fill:#ffffff;fill-opacity:1;fill-rule:evenodd;stroke:none;stroke-width:0.1"
         d="m 235.213,214.771 1.103,-3.15 -2.631,2.053 -2.655,-2.023 1.139,3.137 -2.744,1.9 3.336,-0.114 0.959,3.197 0.922,-3.208 3.337,0.076 -2.766,-1.868" /><path
         id="path5072"
         style="fill:#ffffff;fill-opacity:1;fill-rule:evenodd;stroke:none;stroke-width:0.1"
         d="m 249.526,214.771 1.104,-3.15 -2.632,2.053 -2.655,-2.023 1.14,3.137 -2.744,1.9 3.335,-0.114 0.959,3.197 0.922,-3.208 3.337,0.076 -2.766,-1.868" /><path
         id="path5074"
         style="fill:#ffffff;fill-opacity:1;fill-rule:evenodd;stroke:none;stroke-width:0.1"
         d="m 176.055,229.633 1.104,-3.15 -2.632,2.053 -2.654,-2.022 1.139,3.137 -2.744,1.899 3.336,-0.114 0.959,3.197 0.922,-3.207 3.336,0.076 -2.766,-1.869" /><path
         id="path5076"
         style="fill:#ffffff;fill-opacity:1;fill-rule:evenodd;stroke:none;stroke-width:0.1"
         d="m 188.425,232.383 1.103,-3.15 -2.631,2.053 -2.655,-2.022 1.139,3.137 -2.743,1.899 3.335,-0.114 0.959,3.197 0.922,-3.208 3.337,0.077 -2.766,-1.869" /><path
         id="path5078"
         style="fill:#ffffff;fill-opacity:1;fill-rule:evenodd;stroke:none;stroke-width:0.1"
         d="m 200.794,235.133 1.104,-3.15 -2.632,2.053 -2.655,-2.023 1.14,3.137 -2.744,1.9 3.335,-0.114 0.959,3.197 0.922,-3.208 3.337,0.076 -2.766,-1.868" /><path
         id="path5080"
         style="fill:#ffffff;fill-opacity:1;fill-rule:evenodd;stroke:none;stroke-width:0.1"
         d="m 213.164,237.883 1.103,-3.15 -2.631,2.053 -2.655,-2.023 1.139,3.137 -2.744,1.9 3.336,-0.114 0.958,3.197 0.923,-3.208 3.336,0.076 -2.765,-1.868" /><path
         id="path5082"
         style="fill:#ffffff;fill-opacity:1;fill-rule:evenodd;stroke:none;stroke-width:0.1"
         d="m 247.585,229.633 -1.103,-3.15 2.631,2.053 2.655,-2.022 -1.139,3.137 2.744,1.899 -3.336,-0.114 -0.959,3.197 -0.922,-3.207 -3.337,0.076 2.766,-1.869" /><path
         id="path5084"
         style="fill:#ffffff;fill-opacity:1;fill-rule:evenodd;stroke:none;stroke-width:0.1"
         d="m 235.216,232.383 -1.104,-3.15 2.632,2.053 2.654,-2.022 -1.139,3.137 2.744,1.899 -3.335,-0.114 -0.959,3.197 -0.923,-3.208 -3.336,0.077 2.766,-1.869" /><path
         id="path5086"
         style="fill:#ffffff;fill-opacity:1;fill-rule:evenodd;stroke:none;stroke-width:0.1"
         d="m 222.846,235.133 -1.103,-3.15 2.631,2.053 2.655,-2.023 -1.139,3.137 2.744,1.9 -3.336,-0.114 -0.959,3.197 -0.922,-3.208 -3.337,0.076 2.766,-1.868" /><path
         id="path5088"
         style="fill:#e41a30;fill-opacity:1;fill-rule:evenodd;stroke:none;stroke-width:0.1"
         d="m 170.982,180.1 c 2.011,-3.139 3.581,-7.184 5.899,-10.101 v 34.346 h -6.499 l 0.6,-24.245" /><path
         id="path5090"
         style="fill:#e41a30;fill-opacity:1;fill-rule:evenodd;stroke:none;stroke-width:0.1"
         d="m 183.172,161.421 c 2.077,-2.266 4.245,-4.45 6.499,-6.544 v 49.468 h -6.499 v -42.924" /><path
         id="path5092"
         style="fill:#e41a30;fill-opacity:1;fill-rule:evenodd;stroke:none;stroke-width:0.1"
         d="m 195.963,147.123 c 2.105,-1.762 4.273,-3.449 6.499,-5.057 v 62.279 h -6.499 v -57.222" /><path
         id="path5094"
         style="fill:#e41a30;fill-opacity:1;fill-rule:evenodd;stroke:none;stroke-width:0.1"
         d="m 221.544,141.375 c 2.225,1.573 4.393,3.224 6.499,4.948 v 58.022 h -6.499 v -62.97" /><path
         id="path5096"
         style="fill:#e41a30;fill-opacity:1;fill-rule:evenodd;stroke:none;stroke-width:0.1"
         d="m 234.335,153.99 c 2.251,2.044 4.419,4.176 6.499,6.39 v 43.965 h -6.499 V 153.99" /><path
         id="path5098"
         style="fill:#e41a30;fill-opacity:1;fill-rule:evenodd;stroke:none;stroke-width:0.1"
         d="m 208.754,145.745 h -0.001 v -8.999 l 3.218,-2.362 3.281,2.587 v 0.599 c 0,0 0,0 10e-4,0.001 v 66.774 h -6.499 v -58.6" /><path
         id="path5100"
         style="fill:#e41a30;fill-opacity:1;fill-rule:evenodd;stroke:none;stroke-width:0.1"
         d="m 253.043,180.1 c -2.012,-3.139 -3.582,-7.184 -5.9,-10.101 v 34.346 h 6.5 l -0.6,-24.245" /><path
         id="path5102"
         style="fill:#1969bc;fill-opacity:1;fill-rule:evenodd;stroke:none;stroke-width:0.1"
         d="m 177.704,97.1262 c 0.698,6.2618 -7,4.0908 -11.346,4.3218 -4.147,0.221 -9.301,0.006 -13.703,0.125 -2.402,0.065 -5.117,0.011 -7.527,0.019 -2.035,0.007 -4.501,0.349 -6.105,-0.797 -2.103,-1.5024 0.091,-7.8177 -2.485,-4.9473 -2.193,2.4433 -2.923,3.0941 -3.186,6.3253 -0.526,6.459 6.075,5.12 10.54,5.652 4.571,0.543 9.788,1.23 13.681,3.802 2.628,1.737 5.206,4.014 6.363,7.264 0.833,2.339 -3.395,2.61 -4.3,4.697 -1.016,2.344 1.246,4.883 2.027,7.251 0.702,2.127 1.84,4.335 2.727,6.491 1.888,4.59 4.021,9.309 5.909,13.738 1.991,4.672 3.503,11.928 7.48,6.368 4.271,-5.97 6.504,-9.022 11.562,-13.769 4.307,-4.042 1.421,-8.925 -0.482,-13.66 -1.903,-4.734 -3.432,-9.527 -6.278,-13.901 -3.035,-4.667 -10.565,4.141 -13.686,-2.619 -1.527,-3.308 -2.498,-4.496 1.214,-5.326 2.937,-0.657 3.864,-0.099 6.376,-0.052 5.772,0.11 6.654,-7.473 3.779,-10.9942 -0.642,-0.7855 -1.124,-2.0105 -2.225,-2.2832 -1.1,-0.2726 -0.491,0.8954 -0.335,2.2946 v 0" /></g></g></svg>