<?xml version="1.0" encoding="UTF-8" standalone="no"?>
<svg
   xmlns:dc="http://purl.org/dc/elements/1.1/"
   xmlns:cc="http://creativecommons.org/ns#"
   xmlns:rdf="http://www.w3.org/1999/02/22-rdf-syntax-ns#"
   xmlns:svg="http://www.w3.org/2000/svg"
   xmlns="http://www.w3.org/2000/svg"
   viewBox="0 0 100 100"
   height="100"
   width="100"
   xml:space="preserve"
   id="svg815"
   version="1.1"><metadata
     id="metadata821"><rdf:RDF><cc:Work
         rdf:about=""><dc:format>image/svg+xml</dc:format><dc:type
           rdf:resource="http://purl.org/dc/dcmitype/StillImage" /><dc:title></dc:title></cc:Work></rdf:RDF></metadata><defs
     id="defs819" /><g
     transform="matrix(1.3333333,0,0,-1.3333333,0,100.00001)"
     id="g823"><g
       transform="matrix(0.20234985,0,0,0.20234985,4.6795783,0.71475198)"
       id="g2019"><g
         id="g825"
         transform="scale(0.1)"><path
           d="m 1621.81,3650 c -15.1,-119.14 -287.9,-561.28 -287.9,-561.28 -143.7,-246.55 -214.69,-430.54 -214.69,-430.54 -68.2,-160.3 -79.96,-398.68 -79.96,-398.68 C 831.895,2447.72 586.426,2457.97 586.426,2457.97 296.699,2488.53 161.914,2307.21 161.914,2307.21 -122.48,2007.15 54.293,1639.68 54.293,1639.68 c 107.984,-262.54 493.004,-449.55 493.004,-449.55 -44.699,429.94 196.43,453.95 196.43,453.95 237.601,58.64 368.153,-168 368.153,-168 109.84,-159.98 108.24,-329.24 108.24,-329.24 0,-129.18 0,-202.598 0,-202.598 C 1211.57,750.66 1009.65,799.449 1009.65,799.449 817.652,851.352 813.223,1029.48 813.223,1029.48 602.828,939.09 603.988,736.648 603.988,736.648 580.035,497.332 778.191,394.91 778.191,394.91 1075.96,247.289 1280.31,502.371 1280.31,502.371 1432.74,102.5 1621.79,0.390625 1621.79,0.390625 L 1622.11,0 c 0,0 189.07,102.082 341.5,501.949 0,0 204.34,-255.058 502.12,-107.469 0,0 198.13,102.399 174.17,341.75 0,0 1.16,202.442 -209.2,292.84 0,0 -4.46,-178.14 -196.43,-230.039 0,0 -201.92,-48.801 -210.47,144.801 0,0 -3.53,136.748 0,202.588 3.53,65.84 -1.6,169.26 108.23,329.24 0,0 130.55,226.64 368.16,168 0,0 241.12,-24 196.43,-453.96 0,0 385.04,187.02 493.02,449.58 0,0 176.77,367.45 -107.64,667.51 0,0 -134.77,181.33 -424.49,150.77 0,0 -245.47,-10.27 -452.85,-198.48 0,0 -11.76,238.37 -79.96,398.68 0,0 -70.99,183.99 -214.67,430.54 0,0 -272.85,442.15 -287.92,561.28 l -0.3,0.42"
           style="fill:#211c1d;fill-opacity:1;fill-rule:nonzero;stroke:none"
           id="path827" /><path
           d="m 1621.91,3562.89 c -20.33,-106.4 -329.17,-590.81 -329.17,-590.81 -132.18,-245.5 -186.15,-415.47 -186.15,-415.47 -42.28,-170.67 -48.56,-342.62 -48.56,-342.62 -199.639,199.62 -442.44,221.22 -442.44,221.22 -240.113,29.67 -356.113,-75.53 -356.113,-75.53 C 3.34766,2167.95 24.7773,1906.42 24.7773,1906.42 c 0,-458.62 496.3707,-666.35 496.3707,-666.35 -25.187,469.42 296.75,433.46 296.75,433.46 217.622,0 320.172,-199.64 320.172,-199.64 141.24,-227.78 104.31,-532.378 104.31,-532.378 C 1226.19,713.109 983.391,785.059 983.391,785.059 821.254,837.301 796.34,997.27 796.34,997.27 609.273,903.719 623.676,696.922 623.676,696.922 643.449,382.172 936.629,373.16 936.629,373.16 1145.24,358.781 1286,541.359 1286,541.359 1460,104.301 1622.24,38.6211 1622.24,38.6211 l -0.42,0.6484 c 0,0 162.23,65.6715 336.23,502.7185 0,0 140.76,-182.578 349.37,-168.179 0,0 293.18,8.992 312.95,323.742 0,0 14.41,206.808 -172.64,300.359 0,0 -24.92,-159.988 -187.06,-212.25 0,0 -242.81,-71.969 -259.01,156.481 0,0 -36.91,304.569 104.34,532.369 0,0 102.54,199.64 320.14,199.64 0,0 321.96,35.98 296.77,-433.47 0,0 496.38,207.74 496.38,666.37 0,0 21.38,261.53 -234.75,453.22 0,0 -115.96,105.22 -356.08,75.54 0,0 -242.83,-21.57 -442.45,-221.21 0,0 -6.29,171.95 -48.58,342.62 0,0 -53.93,169.97 -186.15,415.47 0,0 -308.81,484.39 -329.15,590.81 l -0.22,-0.61"
           style="fill:#e7c70d;fill-opacity:1;fill-rule:nonzero;stroke:none"
           id="path829" /><path
           d="m 1621.91,3342.54 -19.27,-1082.91 h -35.07 l 35.07,1052.52 c -37.77,-96.7 -167.26,-306.65 -167.26,-306.65 -129.49,-218.23 -202.32,-466.84 -202.32,-466.84 -67.45,-176.8 -56.67,-464.1 -56.67,-464.1 h -37.76 c -8.1,149.17 21.58,317.68 21.58,317.68 21.57,190.61 148.37,436.46 148.37,436.46 210.43,395.03 313.33,589.44 313.33,589.44 l -0.1,0.69 c 0,0 102.87,-194.41 313.31,-589.45 0,0 126.79,-245.86 148.39,-436.47 0,0 29.65,-168.51 21.55,-317.68 h -37.77 c 0,0 10.82,287.31 -56.62,464.09 0,0 -72.86,248.63 -202.35,466.86 0,0 -129.49,209.95 -167.26,306.64 l 35.07,-1052.5 h -35.07 l -19.25,1082.88"
           style="fill:#211c1d;fill-opacity:1;fill-rule:nonzero;stroke:none"
           id="path831" /><path
           d="M 1603.27,1784.28 H 767.203 c 0,0 -370.504,-34.62 -341.726,-415.91 0,0 -350.727,188.87 -350.727,557.55 0,0 14.3711,296.77 300.348,424.45 l 687.052,-458.61 h 541.1 -0.62 541.12 l 687.03,458.61 c 285.97,-127.68 300.35,-424.45 300.35,-424.45 0,-368.7 -350.71,-557.55 -350.71,-557.55 28.75,381.29 -341.72,415.91 -341.72,415.91 h -836.06"
           style="fill:#211c1d;fill-opacity:1;fill-rule:nonzero;stroke:none"
           id="path833" /><path
           d="M 1601.48,1805.42 H 835.293 c 0,0 -47.012,14.04 -105.242,-0.04 -126.309,-30.53 -306.172,-92.47 -335.047,-381.81 0,0 -311.6017,172.47 -292.598,513.15 0,0 22.473,283.28 265.274,374.09 l 674.47,-442.44 h 561.13 558.09 l 674.44,442.44 c 258.99,-145.69 265.68,-364.19 265.68,-364.19 36.32,-313.41 -285.24,-515.28 -285.24,-515.28 -30.7,324.79 -294.77,389.37 -382.04,376.8 -39.39,-5.69 -65.97,-2.72 -65.97,-2.72 h -766.21"
           style="fill:#e7c70d;fill-opacity:1;fill-rule:nonzero;stroke:none"
           id="path835" /><path
           d="m 1622.75,1151.37 h -438.11 c 0,0 -87.83,-5.43 -87.83,-106.14 v -0.58 c 0,-100.701 87.83,-106.13 87.83,-106.13 h 438.11 0.15 438.09 c 0,0 87.84,5.429 87.84,106.13 v 0.58 c 0,100.71 -87.84,106.14 -87.84,106.14 h -438.09 -0.15"
           style="fill:#211c1d;fill-opacity:1;fill-rule:nonzero;stroke:none"
           id="path837" /><path
           d="m 1623.36,193.582 c -276.9,276.859 -289.3,758.469 -289.3,758.469 h -28.77 C 1280.56,611.18 1103.43,532.121 1103.43,532.121 919.988,429.57 786.785,567.789 786.785,567.789 c -91.347,130.063 -20.613,250.32 -20.613,250.32 82.289,-134.89 217.176,-137.578 217.176,-137.578 279.222,-29.66 311.602,269.758 311.602,269.758 h -13.08 C 1225.62,656.262 965.797,706.172 965.797,706.172 840.344,715.609 764.809,868.02 764.809,868.02 704.105,764.16 716.242,687.281 716.242,687.281 722.98,489 946.891,463.949 946.891,463.949 c 161.849,-4.129 236.659,91.133 236.659,91.133 140.42,152.887 122.17,316.539 122.17,316.539 95.34,-571.941 317.64,-724.832 317.64,-724.832 h -0.46 c 0,0 222.3,152.891 317.62,724.832 0,0 -18.23,-163.629 122.17,-316.539 0,0 74.83,-95.281 236.66,-91.133 0,0 223.91,25.051 230.64,223.332 0,0 12.15,76.879 -48.55,180.739 0,0 -75.56,-152.411 -200.99,-161.848 0,0 -259.85,-49.91 -316.07,244.117 h -13.07 c 0,0 32.4,-299.418 311.62,-269.758 0,0 134.88,2.699 217.16,137.578 0,0 70.73,-120.257 -20.59,-250.32 0,0 -133.23,-138.219 -316.65,-35.668 0,0 -177.17,79.051 -201.89,419.93 h -28.73 c 0,0 -12.42,-481.61 -289.32,-758.469"
           style="fill:#211c1d;fill-opacity:1;fill-rule:nonzero;stroke:none"
           id="path839" /><path
           d="m 1622.75,1134.57 h -423.32 c 0,0 -84.87,-4.54 -84.87,-89.1 v -0.46 c 0,-84.541 84.87,-89.112 84.87,-89.112 h 423.32 0.15 423.31 c 0,0 84.85,4.563 84.85,89.112 v 0.46 c 0,84.54 -84.85,89.1 -84.85,89.1 h -423.31 -0.15"
           style="fill:#e7c70d;fill-opacity:1;fill-rule:nonzero;stroke:none"
           id="path841" /><path
           d="m 1843.05,2266.53 c 0,0 -31.35,19.06 -61.12,19.06 -29.75,0 0,0 0,0 0,0 -62.18,-2.37 -85.88,11.88 0,0 -34.14,20.96 -94.06,43.47 0,0 -60.25,25.65 -95.77,10.35 0,0 -28.82,-4.49 -49.93,-39.57 -21.11,-35.09 0,0 0,0 0,0 -74.71,25.35 -124.63,11.82 -49.92,-13.53 0,0 0,0 0,0 -58.66,-10.49 -58.66,-76.91 0,-66.44 0,0 0,0 0,0 -3.4,-33.38 50.56,-71.16 0,0 0,28.33 8.44,38.11 0,0 37.31,-28.24 96.21,-76.84 58.91,-48.61 0,0 0,0 0,0 68.35,-61.08 68.35,-94.12 0,0 8.49,-22.71 -40.26,-67 -48.75,-44.3 0,0 0,0 0,0 -31.66,-24.06 -30.08,-42.95 1.54,-18.89 0,0 0,0 0,0 -19.35,-22.25 -53.76,-22.25 0,0 -51.93,-29.01 -163.89,136.25 0,0 -69.34,112.53 -297.246,206.33 -227.922,93.79 0,0 0,0 0,0 -46.91,24.09 -148.418,52.71 -101.527,28.65 0,0 0,0 0,0 -314.215,83.34 -391.554,112.11 0,0 -27.86,11.69 -46.762,-7.21 0,0 -44.063,-65.64 10.801,-100.71 0,0 -16.973,-58.02 -6.692,-76.66 10.278,-18.66 0,0 0,0 0,0 9.379,-12.37 47.153,-39.33 0,0 13.242,-121.05 65.636,-129.5 0,0 20.692,-71.94 74.641,-87.23 0,0 54.848,-68.35 92.625,-73.75 0,0 33.273,-58.45 85.437,-68.33 0,0 47.661,-49.45 70.153,-52.15 0,0 38.109,-44.94 71.297,-51.74 33.172,-6.81 0,0 0,0 0,0 44.933,-49.9 81.242,-58.89 36.312,-8.99 0,0 0,0 0,0 138.797,-117.13 218.847,-117.13 80.05,0 0,0 0,0 0,0 34.42,-5.91 59.49,28.64 25.06,34.54 0,0 0,0 0,0 16.34,-44.07 -8.37,-68.78 -24.7,-24.7 0,0 0,0 0,0 -66.39,-60.34 -66.39,-133.19 0,0 8.08,-123.19 28.76,-211.33 20.7,-88.12 0,0 0,0 0,0 21.58,-70.13 -44.95,-172.651 0,0 64.97,-19.25 110.61,32.361 0,0 35.96,50.35 44.96,98.02 0,0 10.34,-31.03 17.99,-38.66 0,0 -1.76,-73.07 17.09,-98.928 0,0 -5.36,-34.211 -97.13,-124.102 0,0 -9.88,-10.8 -58.43,-17.988 0,0 -46.76,-16.223 -69.25,-57.551 0,0 -2.7,-45.851 10.8,-76.41 0,0 16.4,-16.133 23.39,3.57 0,0 5.65,24.989 5.65,37.231 0,12.238 0,0 0,0 l 40.17,15.16 c 0,0 -21.85,-61.152 4.83,-95.902 26.67,-34.739 0,0 0,0 0,0 19.64,-31.731 35.29,-29.629 15.65,2.109 0,0 0,0 0,0 16.57,12.91 14.77,55.16 0,0 2.25,32.371 25.41,59.348 0,0 28.54,18 42.93,-26.059 0,0 11.7,-47.699 22.5,-69.27 0,0 21.66,-28.671 33.26,8.122 0,0 14.39,59.347 -15.3,133.07 0,0 -6.3,10.797 2.7,43.18 0,0 6.31,47.66 92.64,113.308 0,0 26.77,-18.019 -10.67,-121.418 -37.48,-103.41 -0.85,-2.742 -0.85,-2.742 0,0 -62.15,-165.648 -39.75,-244.531 0,0 34.08,-71.629 93.94,-71.629 59.84,0 0,0 0,0 0,0 14.86,-36.27 64.33,-36.27 0,0 28.96,-3.289 43.17,8.09 0,0 6.32,-29.691 46.78,-39.59 0,0 47.5,-11.66 59.34,19.789 0,0 16.23,-6.3 54.89,-0.918 0,0 26.04,9.899 44.95,56.649 0,0 41.36,4.519 88.09,22.519 0,0 24.29,8.871 24.29,75.512 0,0 -17.84,116.199 -49.81,195.668 -32,79.52 0,0 0,0 0,0 -35,70.883 -35,123.32 0,52.411 0,0 0,0 0,0 82.11,-24.007 106.4,-137.308 0,0 -39.56,-63.43 -19.76,-104.313 0,0 12.95,-28.328 31.65,-51.047 18.7,-22.722 0,0 0,0 0,0 22.92,-24.511 21.4,15.059 0,0 -11.24,69.219 16.01,86.68 27.25,17.441 0,0 0,0 0,0 26.25,10.429 54.14,-12.02 0,0 10.8,-6.301 14.4,-50.359 0,0 12.54,-53.082 41.36,17.969 0,0 4.2,24.25 -7.18,60.25 0,0 45.1,17.441 45.1,-33.11 0,0 4.2,-16.512 11.55,-29.871 0,0 27.88,-26.059 27.88,11.723 0,0 11.69,43.16 -11.71,89.91 0,0 -35.03,47.68 -88.1,47.68 0,0 -9.32,0.078 -40.46,31.218 -31.14,31.16 0,0 0,0 0,0 -56.69,66.821 -80.08,90.18 0,0 -9.66,4.609 11.27,31.15 20.96,26.51 0,0 0,0 0,0 24.72,33.6 24.72,52.48 0,0 23.34,-65.661 136.67,-65.661 0,0 -42.29,84.541 -35.06,186.151 0,0 -5.73,53.96 21.43,138.05 0,0 22.63,64.29 5.56,120.07 0,0 -11.74,48.69 -56.23,87.29 -44.48,38.61 0,0 0,0 0,0 5.1,18.21 5.1,48.49 0,0 31.3,-37.87 69.99,-33.32 0,0 7.96,-5.92 50.48,33.32 0,0 34.12,-1.81 61.96,21.58 0,0 0.9,-4.52 22.49,35.07 0,0 31.48,-3.58 88.1,33.28 0,0 30.6,-6.3 67.48,47.66 0,0 22.46,1.8 60.25,53.07 0,0 35.96,4.5 71.03,53.06 0,0 36.87,-6.3 89.93,59.35 0,0 62.95,31.47 78.22,91.72 0,0 58.33,7.95 90.77,101.54 0,0 64.81,18.06 89.1,141.26 0,0 34.11,45.87 34.11,107.92 0,0 54.92,48.56 24.36,86.32 0,0 -36.83,35.92 -78.23,9.87 0,0 -107.77,-45.9 -227.44,-73.75 -119.71,-27.86 0,0 0,0 0,0 -157.73,-35.09 -283.03,-78.24 -125.34,-43.14 0,0 0,0 0,0 -140.15,-48.01 -229.88,-122.02 -89.69,-74 0,0 0,0 0,0 -60.66,-29.25 -100.34,-82.2 -39.69,-52.93 0,0 0,0 0,0 -58.62,-113.2 -91.87,-138.37 0,0 -53.06,-57.55 -96.21,7.2 0,0 -16.2,19.02 -4.53,107.08 11.72,88.05 0,0 0,0 0,0 5.96,66.63 -17.61,86.43 -23.55,19.8 0,0 0,0 0,0 37.81,6.13 29.98,29.95 -7.85,23.82 0,0 0,0 0,0 -25.98,50.02 -55.17,64.4 -29.22,14.37 0,0 0,0 0,0 60.8,24.62 70.2,47.33"
           style="fill:#211c1d;fill-opacity:1;fill-rule:nonzero;stroke:none"
           id="path843" /><path
           d="m 1472.29,916.191 c 25.14,0 10.04,25.118 15.12,35.09 30.1,-20.082 -5.08,-45.082 4.98,-70.191 -20.1,-5.192 -30.09,5.051 -40.23,14.859 v 80.461 c 40.22,0 -15.08,-45.211 20.13,-60.219"
           style="fill:#52381a;fill-opacity:1;fill-rule:nonzero;stroke:none"
           id="path845" /><path
           d="m 1728.37,886.121 5.02,40.188 5.04,-5.071 c 15.03,9.961 20.14,30.032 20.14,49.973 14.97,-24.852 -0.02,-75.262 -30.2,-85.09"
           style="fill:#52381a;fill-opacity:1;fill-rule:nonzero;stroke:none"
           id="path847" /><path
           d="m 1673.19,845.82 h -5.1 v 45.2 h 5.1 c 0,-4.899 4.89,-9.95 4.89,-9.95 10.1,14.871 35.23,20.071 25.28,45.231 4.89,-20.11 -5.13,-60.231 -30.17,-80.481"
           style="fill:#52381a;fill-opacity:1;fill-rule:nonzero;stroke:none"
           id="path849" /><path
           d="m 1527.53,921.238 c 5.01,-10.258 -10.02,-45.347 15.05,-60.277 l 10.03,45.23 5.06,-75.41 c -35.21,10.117 -40.17,55.34 -35.21,90.457 h 5.07"
           style="fill:#52381a;fill-opacity:1;fill-rule:nonzero;stroke:none"
           id="path851" /><path
           d="m 1632.91,845.82 v 40.301 h 15.04 c -5.02,-25.16 -5.02,-55.34 -25.07,-80.301 -25.07,-10.289 -30.12,20.02 -40.13,29.93 v 55.27 c 40.15,4.929 -10.04,-105.43 50.16,-45.2"
           style="fill:#52381a;fill-opacity:1;fill-rule:nonzero;stroke:none"
           id="path853" /><path
           d="m 1823.83,564.711 c -15.02,0 -25.03,-14.973 -40.2,-9.961 0,105.309 -25.09,205.719 -50.25,301.07 l 20.06,5.141 50.18,-266.141 c 25.14,90.43 -14.9,200.731 -35.14,291.301 35.15,-95.34 110.54,-215.941 55.35,-321.41"
           style="fill:#52381a;fill-opacity:1;fill-rule:nonzero;stroke:none"
           id="path855" /><path
           d="m 1422.04,705.289 -10.05,-125.527 h 15.06 c 5.04,95.5 25.11,205.828 75.36,271.129 -25.04,-95.461 -65.33,-190.832 -60.28,-301.153 -40.18,0 -50.22,45.082 -60.26,75.262 0,95.301 20.08,175.602 60.26,250.898 40.2,-40.148 -15.1,-115.429 -20.09,-170.609"
           style="fill:#52381a;fill-opacity:1;fill-rule:nonzero;stroke:none"
           id="path857" /><path
           d="m 1713.3,494.352 -35.23,5.058 c -4.9,105.488 15.14,216.012 -14.94,306.43 l 14.94,20.019 c 20.16,-90.531 40.31,-190.738 30.16,-291.32 45.21,100.582 -4.89,215.961 -4.89,311.281 30.05,-100.41 100.29,-261.031 9.96,-351.468"
           style="fill:#52381a;fill-opacity:1;fill-rule:nonzero;stroke:none"
           id="path859" /><path
           d="M 1542.58,815.648 C 1517.5,720.301 1467.32,625 1502.4,524.57 c 0,100.43 25.11,190.852 55.27,276.032 l -10.03,-281.063 c -10.07,-20.129 -50.21,-20.129 -65.31,0 -35.22,95.441 0,205.961 40.15,296.109 h 20.1"
           style="fill:#52381a;fill-opacity:1;fill-rule:nonzero;stroke:none"
           id="path861" /><path
           d="m 1612.82,489.48 c 15.07,95.29 -10.05,215.809 25.12,301.29 35.23,-85.481 40.13,-231.11 -5.04,-321.551 -95.34,-4.867 -50.15,105.59 -60.21,165.89 l 15,155.661 c 25.13,-95.461 0.01,-211.008 25.13,-301.29"
           style="fill:#52381a;fill-opacity:1;fill-rule:nonzero;stroke:none"
           id="path863" /><path
           d="m 648.707,2191.12 5.008,-35.09 c -110.496,15.17 -241.059,10.09 -306.317,95.47 l 5.11,45.21 c 95.355,-50.26 195.777,-70.35 296.199,-105.59"
           style="fill:#52381a;fill-opacity:1;fill-rule:nonzero;stroke:none"
           id="path865" /><path
           d="m 869.656,2131.03 c -60.222,0 -160.687,-25.11 -190.824,40.19 l -5.039,15.01 c 65.301,-15.03 140.605,-10.12 195.863,-55.2"
           style="fill:#52381a;fill-opacity:1;fill-rule:nonzero;stroke:none"
           id="path867" /><path
           d="m 734.016,2090.75 c -105.344,-9.85 -215.871,-19.97 -306.188,20.22 l -20.094,65.14 c 95.34,-55.04 251.02,0 326.282,-85.36"
           style="fill:#52381a;fill-opacity:1;fill-rule:nonzero;stroke:none"
           id="path869" /><path
           d="m 950.027,2085.81 c -50.246,-10.11 -130.547,-50.28 -180.761,0 l -10.047,9.99 c 65.226,-5.05 130.5,40.14 190.808,-9.99"
           style="fill:#52381a;fill-opacity:1;fill-rule:nonzero;stroke:none"
           id="path871" /><path
           d="m 799.375,2030.48 c -70.324,-44.93 -246.141,-50.13 -326.426,5.05 v 25.15 c 110.442,-30.2 246.055,35.12 326.426,-30.2"
           style="fill:#52381a;fill-opacity:1;fill-rule:nonzero;stroke:none"
           id="path873" /><path
           d="m 1020.32,2035.53 c -45.207,-29.92 -130.601,-40.15 -185.84,-9.97 30.125,30.07 100.418,9.97 140.633,40.17 30.127,15.16 20.082,-30.2 45.207,-30.2"
           style="fill:#52381a;fill-opacity:1;fill-rule:nonzero;stroke:none"
           id="path875" /><path
           d="m 1080.55,1995.39 c -25.06,-35.09 -115.468,-35.09 -170.722,-25 l -20.094,9.97 c 50.305,-5.03 145.686,65.44 190.816,15.03"
           style="fill:#52381a;fill-opacity:1;fill-rule:nonzero;stroke:none"
           id="path877" /><path
           d="m 864.605,1975.33 c -70.269,-40.17 -190.812,-70.23 -281.23,-40.17 l -25.102,30.18 c 100.465,-5.04 210.977,55.2 301.321,15.02 l 5.011,-5.03"
           style="fill:#52381a;fill-opacity:1;fill-rule:nonzero;stroke:none"
           id="path879" /><path
           d="m 1130.85,1945.39 c -45.32,-20.21 -125.61,-40.29 -180.823,-5.18 65.263,-9.99 135.503,50.14 180.823,5.18"
           style="fill:#52381a;fill-opacity:1;fill-rule:nonzero;stroke:none"
           id="path881" /><path
           d="m 929.98,1920.11 c -65.375,-20.06 -200.929,-115.4 -286.312,-30.05 l 225.988,55.33 c 30.125,9.84 40.157,-15.17 60.324,-25.28"
           style="fill:#52381a;fill-opacity:1;fill-rule:nonzero;stroke:none"
           id="path883" /><path
           d="m 1160.96,1890.06 c -45.28,-15.15 -110.5,-15.15 -155.72,0 45.21,0 120.49,55.33 155.72,0"
           style="fill:#52381a;fill-opacity:1;fill-rule:nonzero;stroke:none"
           id="path885" /><path
           d="m 1000.25,1870 c -85.43,-30.2 -190.816,-100.39 -266.234,-40.16 75.418,20.08 160.714,35.11 226.043,80.32 L 1000.25,1870"
           style="fill:#52381a;fill-opacity:1;fill-rule:nonzero;stroke:none"
           id="path887" /><path
           d="m 1170.98,1844.87 c 4.99,-10.11 20.06,0 15.04,-15.03 -40.16,0 -110.51,-25.13 -135.56,25.02 50.25,5.02 100.47,15.14 145.59,20.06 l -25.07,-30.05"
           style="fill:#52381a;fill-opacity:1;fill-rule:nonzero;stroke:none"
           id="path889" /><path
           d="m 1050.45,1814.67 c -70.309,-35.1 -160.731,-80.17 -241.028,-50.15 60.219,35.12 145.512,55.22 220.938,85.39 l 20.09,-35.24"
           style="fill:#52381a;fill-opacity:1;fill-rule:nonzero;stroke:none"
           id="path891" /><path
           d="m 1211.14,1814.67 c -25.12,-4.92 -10.04,-35.1 -15.1,-50.15 -30.11,-15.15 -75.27,5.07 -85.3,30.19 30.14,4.95 65.22,15.04 100.4,19.96"
           style="fill:#52381a;fill-opacity:1;fill-rule:nonzero;stroke:none"
           id="path893" /><path
           d="m 1095.59,1784.62 c -40.1,-45.21 -105.391,-60.24 -165.61,-85.35 l -60.324,25.11 205.834,85.37 c 10.04,-10.09 10.04,-20.08 20.1,-25.13"
           style="fill:#52381a;fill-opacity:1;fill-rule:nonzero;stroke:none"
           id="path895" /><path
           d="m 1155.89,1739.41 c -45.13,-45.07 -110.43,-65.29 -170.73,-90.42 l -40.258,25.13 165.838,85.37 45.15,-20.08 v 0"
           style="fill:#52381a;fill-opacity:1;fill-rule:nonzero;stroke:none"
           id="path897" /><path
           d="m 1196.04,1729.45 c 20.09,-70.37 -55.16,-80.46 -95.34,-115.58 -30.16,-9.97 -80.38,-9.97 -95.47,25.15 70.26,20.06 125.62,55.31 190.81,90.43"
           style="fill:#52381a;fill-opacity:1;fill-rule:nonzero;stroke:none"
           id="path899" /><path
           d="m 1191.04,1608.98 c -30.08,-15.17 -45.19,-45.21 -80.3,-25.15 l 75.26,60.24 c 10.04,0 5.04,-25.12 5.04,-35.09"
           style="fill:#52381a;fill-opacity:1;fill-rule:nonzero;stroke:none"
           id="path901" /><path
           d="m 1605.53,1917.84 c 0,0 -0.11,2.27 -2.76,2.27 0,0 -8.04,3.97 -48.04,-21.19 0,0 -22.69,-11.72 -32.27,11.24 0,0 -7.53,11.32 -23.61,13.54 0,0 -16.05,5.63 -36.58,-5.81 -20.52,-11.44 -61.38,-41.11 -91.03,-41.11 0,0 -28.38,-6.38 -82.07,33.97 0,0 -50.93,46.53 -104.7,127.98 0,0 -24.23,46.99 -174.35,131.21 0,0 -150.757,82.57 -323.335,123.4 0,0 -72.269,18.99 -164.402,45.52 0,0 -137.762,39.11 -175.016,53.19 0,0 -27.668,-14.76 -5.035,-55.31 0,0 136.965,-100.67 487.168,-150.52 0,0 165.098,-109.99 241.03,-115.44 0,0 -5.14,-6.08 -33.12,-2.97 0,0 -14.89,1.03 -5.75,-9.02 0,0 13.56,-24.46 57.71,-26.73 0,0 51.08,-1.94 66.5,-21.66 l -45.14,-9.96 c 0,0 2.26,-20.58 32.58,-36.06 0,0 50.16,-21.07 52.71,-44.27 0,0 -6.27,3.01 -20.4,1.5 l 94.27,-67.45 c 0,0 -8.9,-4.3 -26.77,-4.3 0,0 -20.82,1.96 -32,-4.99 0,0 46.4,-34.58 58.54,-37.37 0,0 79.31,-26.16 92.14,32.32 0,0 -27.64,4.76 -32.69,6.48 0,0 -23.08,6.29 -27.56,28.63 l 90.36,-20.06 -25.13,-45.09 c 0,0 18.24,10.22 54.03,11.95 0,0 47.83,3.38 59.68,25.81 0,0 6.92,10.38 6.92,22.47 0,0 -12.19,2.02 -23.02,-1.54 0,0 -32.83,-12.18 -37.34,11.52 0,0 14.05,6.66 29.21,6.66 0,0 12.8,-0.23 34.45,-4.59 0,0 16.93,-2.86 21.75,-2.09 0,0 -1.51,-12.38 -5.14,-18.52 0,0 -4.75,-6.93 -9.89,-16.58 0,0 45.12,5.78 108.1,72.96 v 0.01"
           style="fill:#52381a;fill-opacity:1;fill-rule:nonzero;stroke:none"
           id="path903" /><path
           d="m 859.609,2216.27 c -160.671,15.17 -331.402,55.31 -477.078,135.61 155.707,-55.18 306.348,-115.42 477.078,-135.61"
           style="fill:#211c1d;fill-opacity:1;fill-rule:nonzero;stroke:none"
           id="path905" /><path
           d="m 2908.47,2371.96 c -80.41,-135.5 -266.1,-130.56 -411.83,-165.68 -140.67,35.12 -190.79,-130.58 -316.18,-115.53 l 14.9,-25.02 c -30.04,-35.25 -70.27,-45.21 -110.4,-45.21 24.99,-10.12 15.04,-55.2 -20.24,-70.21 -9.94,0 -30.03,4.92 -35.06,-4.92 l 35.06,-15.16 c -24.98,-30.18 -50.13,-50.24 -85.2,-60.23 l 35.07,-25.13 c -25.11,-25.12 -35.07,-70.34 -80.41,-60.24 0,10.11 -15.04,15.04 -19.94,25.13 15.05,0 45.19,20.1 19.94,35.11 -9.99,5.06 -19.94,20.08 -30.08,25.13 -5.03,-15.14 25.19,-50.25 -15.13,-50.25 l 5.02,-30.07 c -24.98,15.05 -65.21,-5.05 -90.37,20.08 l 50.24,15.04 c 0,25.13 -19.93,30.07 -30.03,45.21 l -5.07,-30.19 -45.24,5.06 v -30.18 c -40.14,30.18 -100.35,40.17 -120.46,95.48 25.01,4.94 30.09,-30.18 45.16,-50.27 l 40.2,50.27 50.3,-40.17 c 24.96,75.4 75.26,-40.15 125.52,15.03 85.34,65.29 100.35,195.88 200.76,230.84 215.97,170.73 507.23,175.78 753.2,286.15 25.26,10.1 35.39,-4.91 40.27,-30.07 v 0"
           style="fill:#52381a;fill-opacity:1;fill-rule:nonzero;stroke:none"
           id="path907" /><path
           d="m 2536.79,2186.22 c -10.03,-35.25 -35.09,-60.38 -70.16,-65.15 -40.16,0 -85.51,-5.21 -125.7,4.77 25.15,55.45 130.74,40.28 195.86,60.38"
           style="fill:#52381a;fill-opacity:1;fill-rule:nonzero;stroke:none"
           id="path909" /><path
           d="m 2838.15,2176.11 c -15.02,-50.26 -55.22,-85.36 -110.5,-95.21 -80.34,-15.15 -165.58,0 -236.07,20.08 60.36,90.14 170.79,30.05 261.18,55.05 30.17,5.17 55.29,15.17 85.39,20.08 v 0"
           style="fill:#52381a;fill-opacity:1;fill-rule:nonzero;stroke:none"
           id="path911" /><path
           d="m 2461.53,2095.8 c -35.06,-60.27 -110.33,-25.02 -160.57,-14.91 -5.09,9.84 -15.17,0 -25.35,4.92 50.31,55.31 115.5,-10.11 185.92,9.99"
           style="fill:#52381a;fill-opacity:1;fill-rule:nonzero;stroke:none"
           id="path913" /><path
           d="m 2391.11,2040.73 c -39.9,-65.4 -130.33,-25.26 -185.65,-10.25 l 20.07,50.41 c 45.23,-35.09 105.46,-35.09 165.58,-40.16"
           style="fill:#52381a;fill-opacity:1;fill-rule:nonzero;stroke:none"
           id="path915" /><path
           d="m 2752.76,2060.68 c 0,-30.2 -35.1,-50.28 -60.06,-70.34 -95.51,-15.03 -191,10.1 -271.3,45.19 50.25,50.28 90.41,30.2 155.58,20.1 l 175.78,5.05"
           style="fill:#52381a;fill-opacity:1;fill-rule:nonzero;stroke:none"
           id="path917" /><path
           d="m 2336.04,1990.35 c -45.21,-75.26 -135.64,-15.02 -200.96,-9.99 -20.06,30.04 15.07,15.03 25.14,40.18 60.37,-10.14 115.41,-30.19 175.82,-30.19"
           style="fill:#52381a;fill-opacity:1;fill-rule:nonzero;stroke:none"
           id="path919" /><path
           d="m 2667.38,1965.32 c -10.1,-40.15 -40.15,-60.22 -80.27,-65.28 -75.3,15.04 -155.64,25.13 -221.03,70.34 -20.1,40.01 35.1,15.15 40.2,50.13 80.25,-40.15 165.79,-55.19 261.1,-55.19"
           style="fill:#52381a;fill-opacity:1;fill-rule:nonzero;stroke:none"
           id="path921" /><path
           d="m 2270.76,1930.22 c -55.19,-30.18 -120.61,0 -175.79,9.99 l 25.11,30.18 150.68,-40.17"
           style="fill:#52381a;fill-opacity:1;fill-rule:nonzero;stroke:none"
           id="path923" /><path
           d="m 2576.98,1870 c -80.34,-65.29 -200.79,0 -281.1,50.13 l 45.05,40.17 236.05,-90.3"
           style="fill:#52381a;fill-opacity:1;fill-rule:nonzero;stroke:none"
           id="path925" /><path
           d="m 2215.57,1890.06 c -35.11,-35.22 -105.61,-5.05 -150.83,0 20.24,50.15 100.58,4.94 150.83,0"
           style="fill:#52381a;fill-opacity:1;fill-rule:nonzero;stroke:none"
           id="path927" /><path
           d="m 2486.53,1814.67 c -4.89,-19.96 -35.07,-40.16 -60.06,-30.05 -65.45,15.04 -130.59,35.12 -185.93,85.36 l 35.07,35.11 c 65.32,-45.21 135.69,-70.33 210.92,-90.42"
           style="fill:#52381a;fill-opacity:1;fill-rule:nonzero;stroke:none"
           id="path929" /><path
           d="m 2185.38,1849.92 c -35.23,-30.18 -90.43,-15.16 -130.57,-10.12 9.94,20.08 -30.21,30.2 -20.11,35.11 l 150.68,-24.99"
           style="fill:#52381a;fill-opacity:1;fill-rule:nonzero;stroke:none"
           id="path931" /><path
           d="m 2421.42,1764.54 c -5.1,-20.05 -35.13,-35.09 -60.38,-30.04 -65.14,9.99 -120.49,35.11 -170.62,80.17 l 20.09,35.25 c 65.12,-35.25 130.42,-80.31 210.91,-85.38"
           style="fill:#52381a;fill-opacity:1;fill-rule:nonzero;stroke:none"
           id="path933" /><path
           d="m 2130.06,1809.75 c -9.99,-40.14 -65.32,-30.18 -100.38,-30.18 -45.21,55.19 60.19,30.18 100.38,30.18"
           style="fill:#52381a;fill-opacity:1;fill-rule:nonzero;stroke:none"
           id="path935" /><path
           d="m 2355.97,1709.23 c -4.76,-35.09 -54.99,-20.07 -80.34,-14.89 -50.1,9.98 -95.17,40.18 -130.59,75.28 l 20.28,40.14 c 55.27,-50.26 120.49,-75.26 190.65,-100.53"
           style="fill:#52381a;fill-opacity:1;fill-rule:nonzero;stroke:none"
           id="path937" /><path
           d="m 2285.81,1669.2 c -25.03,-20.22 -75.31,-35.24 -105.35,-5.07 -30.31,35.12 -100.55,45.08 -60.38,100.39 50.13,-45.19 105.43,-75.36 165.73,-95.32"
           style="fill:#52381a;fill-opacity:1;fill-rule:nonzero;stroke:none"
           id="path939" /><path
           d="m 2084.98,1754.57 c -5.07,-15.16 -20.24,-25.12 -30.17,-30.19 h -25.12 v 30.19 h 55.29"
           style="fill:#52381a;fill-opacity:1;fill-rule:nonzero;stroke:none"
           id="path941" /><path
           d="m 2205.46,1629.04 c 0,-25.13 -40.14,-30.18 -70.38,-25.13 l -90.23,85.27 c 45.02,70.32 100.19,-45.11 160.61,-60.14"
           style="fill:#52381a;fill-opacity:1;fill-rule:nonzero;stroke:none"
           id="path943" /><path
           d="m 2125.09,1578.78 c -55.3,-40.17 -125.51,25.12 -95.41,95.34 l 95.41,-95.34"
           style="fill:#52381a;fill-opacity:1;fill-rule:nonzero;stroke:none"
           id="path945" /><path
           d="m 2386.29,2231.44 c 155.6,25.12 311.12,55.15 456.91,110.34 -120.47,-65.29 -326.47,-90.29 -456.91,-110.34"
           style="fill:#211c1d;fill-opacity:1;fill-rule:nonzero;stroke:none"
           id="path947" /><path
           d="m 2823.13,2191.12 c -80.31,-19.92 -165.85,-25 -256.08,-19.92 v 19.92 c 105.43,25.15 215.88,45.34 311.24,105.58 10.12,-35.08 -15.17,-85.5 -55.16,-105.58"
           style="fill:#52381a;fill-opacity:1;fill-rule:nonzero;stroke:none"
           id="path949" /><path
           d="m 1624.15,1917.55 c 0,0 -24.24,-5.13 -19.17,21.18 0,0 -1.76,4.57 2.83,11.57 l -15.04,15.02 -45.12,-35.1 c 0,0 3.18,36.15 -15.1,45.09 0,0 -12.98,-36.39 -70.25,-25.01 0,0 62.09,48.75 62.09,92.61 0,0 5.07,22.98 -31.02,61.41 0,0 -37.13,39.87 -87.52,80.46 0,0 -39.5,30.09 -54.06,46.65 l 70.25,-15.18 -30.13,5.17 c 0,0 -0.05,-23.33 49.19,-26.23 0,0 42.99,-2.96 28.59,35.87 0,0 -22.53,35.77 -55.56,38.14 0,0 -32.09,2.35 -52.31,2.35 l 18.1,-18.14 c 0,0 -64.56,3.93 -68.31,-42.25 0,0 -36.61,76.83 41.87,89.68 0,0 20.62,3.68 53.58,-1.7 0,0 17.91,-2.47 30.02,-2.47 l 50.33,-50.25 c 0,0 -38.25,50.77 28.53,83.48 0,0 9.02,9.22 77.35,-11.76 0,0 7.68,-0.83 128.07,-46.8 0,0 25.81,-10.62 77.45,-9.75 0,0 -35.47,-42.36 -65.42,-10.12 0,0 -4.64,-5.28 -3.48,-10.97 0,0 1.73,-4.59 10,-11.43 0,0 14.38,-8.87 13.55,-22.8 l -50.1,9.98 -5.13,-25.14 c 0,0 -18.63,3.77 -62.01,37.73 0,0 -56.21,54.44 -111.54,45.02 0,0 -14.6,-0.19 -14.6,-6.05 0,0 -1.75,-5.19 3.31,-13.21 0,0 34.78,-68.8 99.45,-33.16 0,0 45.87,-41.44 76.19,-50.45 0,0 17,-6.43 44.38,0.21 v 15.02 c 0,0 10.89,-5.43 24.69,-5.43 0,0 5.39,0.08 16,4.29 0,0 5.33,3.23 10.72,-2.14 0,0 6.98,-6.67 14.75,-21.74 l -46.1,-5.17 c 0,0 39.38,-35.1 40.2,-95.34 l -55.22,50.28 c 0,0 -7.83,-11.7 -21.37,-25.23 0,0 -9.92,-9.74 -12.95,-16.15 0,0 -7.25,18.02 -23.6,34.4 0,0 -8.11,5.37 -9.11,8.76 0,0 -11.05,2.23 -38.49,-31.85 l -40.16,34.98 -41.06,-34.98 c 0,0 -33.49,85.69 -99.53,90.32 l -10.03,-10 c 0,0 26.09,-20.69 49.11,-36.43 0,0 41.25,-24.75 51.35,-69.13 l 60.19,30.18 c 0,0 5.9,-34.95 15.06,-35.22 0,0 5.91,-7.67 30.76,15.44 0,0 33.93,43.79 49.64,-15.44 0,0 10.38,-4.08 24.01,12.15 0,0 10.02,18.15 16.18,18.15 0,0 6.92,-14.94 30.98,-31 0,0 36.22,-25.84 24.24,-49.45 l -35.09,35.09 -14.57,-29.03 c 0,0 -8.5,-7.13 -23.7,11.8 0,0 -11.12,15.5 -22.06,22.43 l -45.16,-40.27 -35.25,48.89 -35.06,-38.95 -20.12,45.24 -50.2,-55.18 c 0,0 5.82,-6.94 9.22,-6.94 0,0 3.23,-1.66 11.8,6.94 0,0 7.22,10.14 16.03,3.81 l 33.26,-23.91 25.04,30.04 55.33,-35.07 c 0,0 7.86,4.98 11.95,16.89 0,0 4.85,19.36 18.13,18.18 l 45.21,-50.12 24.99,35.09 c 0,0 44.81,-22.41 25.32,-90.28 l -50.31,40.28 -35.07,-40.28 -30.17,60.22 c 0,0 -15.77,-2.08 -23.29,-18.89 -0.01,0 -11.32,-27.48 -25.75,-28.91 v 0.01"
           style="fill:#ffffff;fill-opacity:1;fill-rule:nonzero;stroke:none"
           id="path951" /><path
           d="m 1592.76,2236.46 c 0,0 -44.33,-4.73 -60.22,15.04 0,0 8.45,-20.41 31.34,-21.74 0,0 19.19,-2.98 28.88,6.7"
           style="fill:#ffffff;fill-opacity:1;fill-rule:nonzero;stroke:none"
           id="path953" /><path
           d="m 1457.13,2231.44 -15,-15.17 c 0,0 16,14.82 -35.19,30.18 0,0 14.71,8.48 27.45,-2.09 -0.01,0 16.86,-12.92 22.74,-12.92"
           style="fill:#ffffff;fill-opacity:1;fill-rule:nonzero;stroke:none"
           id="path955" /><path
           d="m 1351.77,1086.76 c -120.56,25.15 -90.43,170.79 -135.64,251.09 l -15.04,-9.99 c 20.08,-85.35 75.42,-200.78 0,-266.07 -20.09,-25.24 -40.14,-50.27 -75.38,-50.27 120.5,145.58 -70.22,356.52 70.33,466.87 30.15,-135.51 75.36,-286.17 155.73,-391.63"
           style="fill:#52381a;fill-opacity:1;fill-rule:nonzero;stroke:none"
           id="path957" /><path
           d="m 1351.77,1056.73 c 4.97,-30.17 -10.03,-35.12 -30.14,-45.23 -25.08,5.08 -20.09,40.16 -20.09,60.24 l 50.23,-15.01"
           style="fill:#52381a;fill-opacity:1;fill-rule:nonzero;stroke:none"
           id="path959" /><path
           d="m 1422.04,1011.5 -30.13,-30.02 -15.08,65.14 c 25.12,5.04 25.12,-25 45.21,-35.12"
           style="fill:#52381a;fill-opacity:1;fill-rule:nonzero;stroke:none"
           id="path961" /><path
           d="m 1366.78,966.441 -30.12,19.957 15.11,20.062 z"
           style="fill:#52381a;fill-opacity:1;fill-rule:nonzero;stroke:none"
           id="path963" /><path
           d="m 1346.78,941.309 c -15.1,-10.11 -40.19,9.972 -30.14,29.921 25.1,5.18 20.02,-19.949 30.14,-29.921"
           style="fill:#52381a;fill-opacity:1;fill-rule:nonzero;stroke:none"
           id="path965" /><path
           d="m 1321.65,895.949 c -5.01,10.242 -60.3,10.242 -35.09,40.16 20.05,0 60.22,-14.871 35.09,-40.16"
           style="fill:#52381a;fill-opacity:1;fill-rule:nonzero;stroke:none"
           id="path967" /><path
           d="m 1306.61,881.09 v -15.02 l -55.29,20.071 c 14.98,24.839 40.19,4.879 55.29,-5.051"
           style="fill:#52381a;fill-opacity:1;fill-rule:nonzero;stroke:none"
           id="path969" /><path
           d="m 1291.51,845.82 -4.95,-19.961 -65.38,25.032 c 10.05,50.257 50.22,4.949 70.33,-5.071"
           style="fill:#52381a;fill-opacity:1;fill-rule:nonzero;stroke:none"
           id="path971" /><path
           d="m 1321.65,725.48 -20.1,-10.058 15.09,15 c 5.01,15 -15.09,10 -25.12,10 5.05,4.988 15.09,10.058 15.09,20.047 l -25.16,10.121 c 5.12,0 10.07,4.879 10.07,4.879 -10.07,15.312 -35.09,5.082 -50.25,10.121 -15.08,-19.942 -45.22,5.18 -55.25,9.961 l -20.08,40.211 c 10.03,-44.981 90.49,-29.922 125.58,-40.211 -15,35.25 -95.47,0 -95.47,55.34 50.18,-35.243 120.59,-50.309 125.6,-125.411"
           style="fill:#52381a;fill-opacity:1;fill-rule:nonzero;stroke:none"
           id="path973" /><path
           d="m 1155.89,835.75 v -20.102 l -15.01,20.102 z"
           style="fill:#52381a;fill-opacity:1;fill-rule:nonzero;stroke:none"
           id="path975" /><path
           d="m 1135.76,795.551 c -4.91,5.051 -10.03,15.199 -25.02,10.289 v -35.25 l -30.21,15 c 0,35.25 40.23,0 40.23,40.25 15,0.019 15,-15.09 15,-30.289"
           style="fill:#52381a;fill-opacity:1;fill-rule:nonzero;stroke:none"
           id="path977" /><path
           d="m 1181.01,760.469 15.04,-20.047 c -4.99,-10 -25.07,-5.113 -35.09,-5.113 v 20.113 h 10.02 v 20.027 l 40.16,-9.801 -30.13,-5.179"
           style="fill:#52381a;fill-opacity:1;fill-rule:nonzero;stroke:none"
           id="path979" /><path
           d="m 1090.58,760.469 h 5.01 v -25.141 h -5.01 v 25.141"
           style="fill:#52381a;fill-opacity:1;fill-rule:nonzero;stroke:none"
           id="path981" /><path
           d="m 1160.96,730.422 30.08,-4.942 v -10.058 l -30.08,10.058 v 4.942"
           style="fill:#52381a;fill-opacity:1;fill-rule:nonzero;stroke:none"
           id="path983" /><path
           d="m 1311.6,705.289 v -30.027 l -4.99,30.027 z"
           style="fill:#52381a;fill-opacity:1;fill-rule:nonzero;stroke:none"
           id="path985" /><path
           d="M 1186,695.309 V 670.18 l -15.02,25.129 z"
           style="fill:#52381a;fill-opacity:1;fill-rule:nonzero;stroke:none"
           id="path987" /><path
           d="m 1914.26,951.281 c 4.89,-30.019 -35.24,-15.172 -35.24,-35.09 l -15.04,10.118 c 15.04,15 35.11,50.101 50.28,24.972"
           style="fill:#52381a;fill-opacity:1;fill-rule:nonzero;stroke:none"
           id="path989" /><path
           d="m 2054.81,1026.56 c -40.2,5.04 -85.21,30.17 -90.43,70.18 l 20.1,130.73 c -30.03,-45.22 -45.22,-140.72 -130.59,-155.73 90.41,110.51 165.83,266.1 170.72,426.71 115.43,-135.48 -55.01,-306.23 30.2,-471.89"
           style="fill:#52381a;fill-opacity:1;fill-rule:nonzero;stroke:none"
           id="path991" /><path
           d="m 1893.99,1011.5 c -14.97,-5.05 -19.93,15.06 -35.1,25.03 l 65.31,50.23 -30.21,-75.26"
           style="fill:#52381a;fill-opacity:1;fill-rule:nonzero;stroke:none"
           id="path993" /><path
           d="m 1813.68,976.41 c -14.87,-5.18 -20.04,5.07 -24.96,9.988 l 40.06,55.332 c 15.11,-15.17 -4.95,-45.39 -15.1,-65.32"
           style="fill:#52381a;fill-opacity:1;fill-rule:nonzero;stroke:none"
           id="path995" /><path
           d="m 1848.96,946.359 c -30.19,20.082 4.92,40.039 4.92,60.101 l 35.1,-24.98 -40.02,-35.121"
           style="fill:#52381a;fill-opacity:1;fill-rule:nonzero;stroke:none"
           id="path997" /><path
           d="m 1949.34,910.98 -55.35,-29.91 c -9.91,20.071 20.27,25.102 25.15,45.231 15.05,9.808 20.11,-10.11 30.2,-15.321"
           style="fill:#52381a;fill-opacity:1;fill-rule:nonzero;stroke:none"
           id="path999" /><path
           d="m 1984.47,875.891 -70.21,-25.02 c -5.07,19.949 19.93,40.149 35.08,40.149 15.02,0 30.19,-4.899 35.13,-15.129"
           style="fill:#52381a;fill-opacity:1;fill-rule:nonzero;stroke:none"
           id="path1001" /><path
           d="m 1924.22,820.84 c 5.09,40.121 55.33,20.058 80.31,40.121 -25,-20.063 -40.17,-55.121 -80.31,-40.121"
           style="fill:#52381a;fill-opacity:1;fill-rule:nonzero;stroke:none"
           id="path1003" /><path
           d="m 2089.87,825.859 c 5.1,-15.109 -20.06,-15.109 -25.12,-30.308 l -9.94,30.308 c -30.21,-30.308 -30.21,-85.418 -85.21,-55.269 19.89,4.879 45.02,24.961 65.1,50.25 l -100.51,-25.289 c 55.3,20.097 110.66,65.41 155.68,30.308"
           style="fill:#52381a;fill-opacity:1;fill-rule:nonzero;stroke:none"
           id="path1005" /><path
           d="m 2115.02,805.84 -20.07,-15.059 9.99,24.867 z"
           style="fill:#52381a;fill-opacity:1;fill-rule:nonzero;stroke:none"
           id="path1007" /><path
           d="m 1924.22,775.469 h 25.11 v -4.879 h -25.11 v 4.879"
           style="fill:#52381a;fill-opacity:1;fill-rule:nonzero;stroke:none"
           id="path1009" /><path
           d="M 1919.15,760.469 V 745.41 l -15.04,20.262 c 5.08,0 10.15,0 15.04,-5.203"
           style="fill:#52381a;fill-opacity:1;fill-rule:nonzero;stroke:none"
           id="path1011" /><path
           d="m 2125.09,765.672 -5.01,-45.371 -5.06,5.179 5.06,40.192 h 5.01"
           style="fill:#52381a;fill-opacity:1;fill-rule:nonzero;stroke:none"
           id="path1013" /><path
           d="m 2009.67,760.469 h 25.03 v -5.047 h -25.03 v 5.047"
           style="fill:#52381a;fill-opacity:1;fill-rule:nonzero;stroke:none"
           id="path1015" /><path
           d="m 1909.19,735.328 v -9.848 l -15.2,14.942 c 10.12,5 10.12,0 15.2,-5.094 v 0"
           style="fill:#52381a;fill-opacity:1;fill-rule:nonzero;stroke:none"
           id="path1017" /><path
           d="m 2024.6,735.328 h 20.26 v -4.906 h -20.26 v 4.906"
           style="fill:#52381a;fill-opacity:1;fill-rule:nonzero;stroke:none"
           id="path1019" /><path
           d="m 2014.61,1317.75 -30.14,-80.3 20.06,80.3 z"
           style="fill:#211d19;fill-opacity:1;fill-rule:nonzero;stroke:none"
           id="path1021" /><path
           d="m 2014.61,1317.75 -30.14,-80.3 20.06,80.3 z"
           style="fill:#211c1d;fill-opacity:1;fill-rule:nonzero;stroke:none"
           id="path1023" /><path
           d="m 286.523,1758.73 0.18,5.08 -119.644,4.24 91.812,81.37 -33.758,117.7 105.758,-62.15 101.539,68.41 -27.019,-120.35 96.972,-74.78 -122.343,-11.05 -41.477,-115.84 -48.633,112.34 -3.207,0.11 -0.18,-5.08 -4.664,-2.02 57.582,-133 47.957,133.96 141.707,12.79 -112.378,86.66 31.199,138.97 -117.422,-79.12 -122.176,71.79 39.008,-135.99 -106.043,-93.98 145.051,-5.14 0.179,5.08 -4.664,-2.02 4.664,2.02"
           style="fill:#211c1d;fill-opacity:1;fill-rule:nonzero;stroke:none"
           id="path1025" /><path
           d="m 435.563,1986.14 -103.922,-152.58 8.402,-5.72 103.918,152.58"
           style="fill:#211c1d;fill-opacity:1;fill-rule:nonzero;stroke:none"
           id="path1027" /><path
           d="m 212.684,1974.86 115.14,-150.75 8.078,6.17 -115.144,150.74"
           style="fill:#211c1d;fill-opacity:1;fill-rule:nonzero;stroke:none"
           id="path1029" /><path
           d="m 158.117,1759.38 175.465,63.04 -3.437,9.56 -175.465,-63.04"
           style="fill:#211c1d;fill-opacity:1;fill-rule:nonzero;stroke:none"
           id="path1031" /><path
           d="m 344.07,1637.73 -7.129,189.66 -10.156,-0.38 7.129,-189.67"
           style="fill:#211c1d;fill-opacity:1;fill-rule:nonzero;stroke:none"
           id="path1033" /><path
           d="m 517.148,1779.23 -179.574,52.01 -2.828,-9.76 179.574,-52.01"
           style="fill:#211c1d;fill-opacity:1;fill-rule:nonzero;stroke:none"
           id="path1035" /><path
           d="m 325.609,1910.85 1.754,-76.07 -72.855,21.19 -2.836,-9.75 86.172,-25.07 -2.074,89.94 z m 62.106,-145.29 -46.735,59.93 71.723,24.78 -3.316,9.61 -85.16,-29.43 55.472,-71.14 z m -98.797,-10.42 47.879,69.96 -8.387,5.74 -47.879,-69.96 8.387,-5.74"
           style="fill:#211c1d;fill-opacity:1;fill-rule:nonzero;stroke:none"
           id="path1037" /><path
           d="m 2836.32,1762.55 0.18,5.08 -119.66,4.22 91.79,81.39 -33.74,117.68 105.76,-62.15 101.55,68.41 -27.03,-120.36 96.97,-74.77 -122.34,-11.03 -41.48,-115.84 -48.62,112.34 -3.2,0.11 -0.18,-5.08 -4.67,-2.02 57.57,-133 47.95,133.95 141.72,12.78 -112.38,86.65 31.21,138.98 -117.44,-79.12 -122.17,71.8 38.99,-135.98 -106.03,-93.99 145.07,-5.13 0.18,5.08 -4.67,-2.02 4.67,2.02"
           style="fill:#211c1d;fill-opacity:1;fill-rule:nonzero;stroke:none"
           id="path1039" /><path
           d="m 2985.31,1989.95 -103.91,-152.59 8.4,-5.72 103.91,152.59"
           style="fill:#211c1d;fill-opacity:1;fill-rule:nonzero;stroke:none"
           id="path1041" /><path
           d="m 2762.46,1978.66 115.16,-150.74 8.07,6.17 -115.15,150.74"
           style="fill:#211c1d;fill-opacity:1;fill-rule:nonzero;stroke:none"
           id="path1043" /><path
           d="m 2707.91,1763.18 175.46,63.04 -3.43,9.56 -175.47,-63.03"
           style="fill:#211c1d;fill-opacity:1;fill-rule:nonzero;stroke:none"
           id="path1045" /><path
           d="m 2893.85,1641.54 -7.12,189.65 -10.15,-0.38 7.11,-189.65"
           style="fill:#211c1d;fill-opacity:1;fill-rule:nonzero;stroke:none"
           id="path1047" /><path
           d="m 3066.93,1783.04 -179.56,52 -2.83,-9.76 179.56,-52"
           style="fill:#211c1d;fill-opacity:1;fill-rule:nonzero;stroke:none"
           id="path1049" /><path
           d="m 2875.39,1914.65 1.76,-76.06 -72.86,21.22 -2.84,-9.76 86.19,-25.1 -2.09,89.94 z m 62.1,-145.27 -46.73,59.91 71.72,24.78 -3.32,9.61 -85.16,-29.43 55.48,-71.12 z m -98.78,-10.44 47.88,69.95 -8.39,5.74 -47.88,-69.95 8.39,-5.74"
           style="fill:#211c1d;fill-opacity:1;fill-rule:nonzero;stroke:none"
           id="path1051" /><path
           d="m 1999.6,1769.61 c 35.1,-351.46 -70.3,-677.76 -376.7,-853.419 -331.38,155.559 -416.8,501.959 -391.67,863.379 145.6,-20.07 286.28,20.09 386.6,105.45 100.57,-80.31 236.05,-155.57 381.77,-115.41"
           style="fill:#ffffff;fill-opacity:1;fill-rule:nonzero;stroke:none"
           id="path1053" /><path
           d="M 1964.36,1724.38 V 1553.64 H 1271.4 v 170.74 c 130.55,5.07 266.17,15.03 346.43,115.42 90.42,-85.23 216.12,-125.52 346.53,-115.42"
           style="fill:#37366d;fill-opacity:1;fill-rule:nonzero;stroke:none"
           id="path1055" /><path
           d="M 1954.43,1513.49 C 1939.25,1287.56 1828.79,1066.7 1612.84,956.219 1411.99,1076.79 1296.57,1287.56 1281.45,1513.49 h 672.98"
           style="fill:#b21c33;fill-opacity:1;fill-rule:nonzero;stroke:none"
           id="path1057" /><path
           d="m 1325.03,1580.78 -16.22,-11.04 5.69,18.61 -15.85,11.84 19.93,0.43 6.45,18.33 6.65,-18.33 19.9,-0.43 -15.89,-11.84 5.7,-18.61 -16.36,11.04"
           style="fill:#ffffff;fill-opacity:1;fill-rule:nonzero;stroke:none"
           id="path1059" /><path
           d="m 1559.51,1593.4 -16.33,-11.02 5.73,18.48 -15.91,11.84 19.89,0.4 6.62,18.35 6.46,-18.35 19.96,-0.4 -15.89,-11.84 5.85,-18.48 -16.38,11.02"
           style="fill:#ffffff;fill-opacity:1;fill-rule:nonzero;stroke:none"
           id="path1061" /><path
           d="m 1325.03,1672.8 -16.22,-10.9 5.69,18.48 -15.85,11.7 19.93,0.54 6.45,18.33 6.65,-18.33 19.9,-0.54 -15.89,-11.7 5.7,-18.48 -16.36,10.9"
           style="fill:#ffffff;fill-opacity:1;fill-rule:nonzero;stroke:none"
           id="path1063" /><path
           d="m 1802.09,1589.16 -16.33,-11.03 5.87,18.61 -15.95,11.7 19.97,0.54 6.44,18.33 6.72,-18.33 19.82,-0.54 -15.88,-11.7 5.75,-18.61 -16.41,11.03"
           style="fill:#ffffff;fill-opacity:1;fill-rule:nonzero;stroke:none"
           id="path1065" /><path
           d="m 1672.49,1593.4 -16.35,-11.02 5.69,18.48 -15.89,11.84 19.89,0.4 6.66,18.35 6.48,-18.35 20,-0.4 -15.91,-11.84 5.79,-18.48 -16.36,11.02"
           style="fill:#ffffff;fill-opacity:1;fill-rule:nonzero;stroke:none"
           id="path1067" /><path
           d="m 1534.34,1714.81 -16.39,-11.16 5.83,18.61 -15.9,11.7 19.87,0.54 6.59,18.21 6.49,-18.21 20,-0.54 -15.85,-11.7 5.69,-18.61 -16.33,11.16"
           style="fill:#ffffff;fill-opacity:1;fill-rule:nonzero;stroke:none"
           id="path1069" /><path
           d="m 1622.24,1764.96 -16.39,-11.18 5.77,18.61 -15.84,11.72 19.87,0.51 6.59,18.51 6.52,-18.51 19.99,-0.51 -15.89,-11.72 5.72,-18.61 -16.34,11.18"
           style="fill:#ffffff;fill-opacity:1;fill-rule:nonzero;stroke:none"
           id="path1071" /><path
           d="m 1444.63,1583.59 -16.38,-11.31 5.75,18.74 -15.78,11.7 19.91,0.41 6.5,18.32 6.59,-18.32 19.9,-0.41 -15.89,-11.7 5.78,-18.74 -16.38,11.31"
           style="fill:#ffffff;fill-opacity:1;fill-rule:nonzero;stroke:none"
           id="path1073" /><path
           d="m 1433.93,1685.43 -16.36,-11.02 5.75,18.6 -15.91,11.7 19.9,0.42 6.62,18.34 6.45,-18.34 19.99,-0.42 -15.83,-11.7 5.75,-18.6 -16.36,11.02"
           style="fill:#ffffff;fill-opacity:1;fill-rule:nonzero;stroke:none"
           id="path1075" /><path
           d="m 1818.9,1677.18 -16.36,-11.16 5.75,18.6 -15.88,11.71 19.93,0.4 6.56,18.36 6.49,-18.36 19.97,-0.4 -15.84,-11.71 5.73,-18.6 -16.35,11.16"
           style="fill:#ffffff;fill-opacity:1;fill-rule:nonzero;stroke:none"
           id="path1077" /><path
           d="m 1915.06,1585.04 -16.23,-11.04 5.75,18.47 -15.87,11.85 19.93,0.4 6.42,18.35 6.62,-18.35 19.93,-0.4 -15.94,-11.85 5.85,-18.47 -16.46,11.04"
           style="fill:#ffffff;fill-opacity:1;fill-rule:nonzero;stroke:none"
           id="path1079" /><path
           d="m 1915.06,1668.66 -16.23,-11.02 5.75,18.48 -15.87,11.84 19.93,0.39 6.42,18.35 6.62,-18.35 19.93,-0.39 -15.94,-11.84 5.85,-18.48 -16.46,11.02"
           style="fill:#ffffff;fill-opacity:1;fill-rule:nonzero;stroke:none"
           id="path1081" /><path
           d="m 1714.24,1710.56 -16.34,-11.03 5.72,18.48 -15.84,11.82 19.93,0.42 6.53,18.35 6.65,-18.35 19.97,-0.42 -15.94,-11.82 5.69,-18.48 -16.37,11.03"
           style="fill:#ffffff;fill-opacity:1;fill-rule:nonzero;stroke:none"
           id="path1083" /><path
           d="m 1331.29,1502.54 h 34.24 v -276.46 l -34.24,82.33 v 194.13"
           style="fill:#ffffff;fill-opacity:1;fill-rule:nonzero;stroke:none"
           id="path1085" /><path
           d="m 1365.53,1502.98 h -34.24 l -0.32,-0.13 -0.13,-0.31 h 0.45 -0.45 v -194.13 l 0.04,-0.17 34.25,-82.33 0.49,-0.26 0.35,0.43 v 276.46 l -0.13,0.31 -0.31,0.13 m 0,-276.9 -34.24,82.33 v 194.13 h 34.24 v -276.46"
           style="fill:#b21c33;fill-opacity:1;fill-rule:nonzero;stroke:none"
           id="path1087" /><path
           d="m 1365.53,1502.54 h -34.24 v -194.13 l 34.24,-82.33 v 276.46 m -33.81,-0.44 h 33.37 v -273.82 l -33.37,80.22 v 193.6"
           style="fill:#ffffff;fill-opacity:1;fill-rule:nonzero;stroke:none"
           id="path1089" /><path
           d="m 1670.21,1501.72 h 34.25 v -482.43 l -31.12,-21.731 -3.13,504.161"
           style="fill:#ffffff;fill-opacity:1;fill-rule:nonzero;stroke:none"
           id="path1091" /><path
           d="m 1704.46,1502.3 h -34.25 l -0.42,-0.17 -0.16,-0.41 h 0.58 -0.58 l 3.13,-504.161 0.32,-0.508 0.6,0.039 31.11,21.72 0.25,0.48 v 482.43 l -0.17,0.41 -0.41,0.17 m -31.12,-504.741 -3.13,504.161 h 34.25 v -482.43 l -31.12,-21.731"
           style="fill:#b21c33;fill-opacity:1;fill-rule:nonzero;stroke:none"
           id="path1093" /><path
           d="m 1704.46,1501.72 h -34.25 l 3.13,-504.161 31.12,21.731 v 482.43 m -33.67,-0.58 h 33.08 v -481.55 l -29.95,-20.918 -3.13,502.468"
           style="fill:#ffffff;fill-opacity:1;fill-rule:nonzero;stroke:none"
           id="path1095" /><path
           d="m 1786.54,1502.2 h 34.25 v -361.06 l -31.13,-39.34 -3.12,400.4"
           style="fill:#ffffff;fill-opacity:1;fill-rule:nonzero;stroke:none"
           id="path1097" /><path
           d="m 1820.79,1502.7 h -34.25 l -0.36,-0.15 -0.14,-0.35 h 0.5 -0.5 l 3.12,-400.41 0.34,-0.47 0.55,0.17 31.13,39.34 0.11,0.31 v 361.06 l -0.15,0.35 -0.35,0.15 m -31.13,-400.9 -3.12,400.4 h 34.25 v -361.06 l -31.13,-39.34"
           style="fill:#b21c33;fill-opacity:1;fill-rule:nonzero;stroke:none"
           id="path1099" /><path
           d="m 1820.79,1502.2 h -34.25 l 3.12,-400.4 31.13,39.34 v 361.06 m -33.75,-0.51 h 33.24 v -360.38 l -30.13,-38.08 -3.11,398.46"
           style="fill:#ffffff;fill-opacity:1;fill-rule:nonzero;stroke:none"
           id="path1101" /><path
           d="m 1874.87,1502.8 h 34.26 v -192.97 l -31.16,-72.22 -3.1,265.19"
           style="fill:#ffffff;fill-opacity:1;fill-rule:nonzero;stroke:none"
           id="path1103" /><path
           d="m 1909.13,1503.16 h -34.26 l -0.26,-0.11 -0.1,-0.26 0.36,0.01 -0.36,-0.01 3.1,-265.19 0.29,-0.35 0.41,0.21 31.16,72.23 0.03,0.14 v 192.97 l -0.11,0.26 -0.26,0.1 m -31.16,-265.55 -3.1,265.19 h 34.26 v -192.97 l -31.16,-72.22"
           style="fill:#b21c33;fill-opacity:1;fill-rule:nonzero;stroke:none"
           id="path1105" /><path
           d="m 1909.13,1502.8 h -34.26 l 3.1,-265.19 31.16,72.22 v 192.97 m -33.88,-0.37 h 33.51 v -192.52 l -30.44,-70.57 -3.07,263.09"
           style="fill:#ffffff;fill-opacity:1;fill-rule:nonzero;stroke:none"
           id="path1107" /><path
           d="m 1443.45,1502.1 h 32.76 v -431.25 l -34.26,40.49 1.5,390.76"
           style="fill:#ffffff;fill-opacity:1;fill-rule:nonzero;stroke:none"
           id="path1109" /><path
           d="m 1443.45,1502.61 v 0 0 l -0.36,-0.15 -0.15,-0.35 v -0.01 l -1.49,-390.75 0.12,-0.33 34.26,-40.5 0.55,-0.14 0.33,0.47 v 431.25 l -0.14,0.36 -0.36,0.14 h -32.76 v 0.01 0 m 32.76,-431.76 -34.26,40.49 1.5,390.76 h 32.76 v -431.25 m -32.26,431.25 v 0 m 0,0 v 0 0"
           style="fill:#b21c33;fill-opacity:1;fill-rule:nonzero;stroke:none"
           id="path1111" /><path
           d="m 1476.21,1502.1 h -32.76 l -1.5,-390.76 34.26,-40.49 v 431.25 m -32.26,-0.5 h 31.76 v -429.37 l -33.25,39.3 1.49,390.07"
           style="fill:#ffffff;fill-opacity:1;fill-rule:nonzero;stroke:none"
           id="path1113" /><path
           d="m 1556.91,1501.66 h 34.25 V 973.98 l -34.25,25.149 v 502.531"
           style="fill:#ffffff;fill-opacity:1;fill-rule:nonzero;stroke:none"
           id="path1115" /><path
           d="m 1591.16,1502.25 h -34.25 l -0.41,-0.17 -0.18,-0.42 h 0.59 -0.59 V 999.129 l 0.24,-0.481 34.24,-25.148 0.62,-0.051 0.33,0.531 v 527.68 l -0.17,0.42 -0.42,0.17 m 0,-528.27 -34.25,25.149 v 502.531 h 34.25 V 973.98"
           style="fill:#b21c33;fill-opacity:1;fill-rule:nonzero;stroke:none"
           id="path1117" /><path
           d="m 1591.16,1501.66 h -34.25 V 999.129 l 34.25,-25.149 v 527.68 m -33.65,-0.6 h 33.05 V 975.148 l -33.05,24.282 v 501.63"
           style="fill:#ffffff;fill-opacity:1;fill-rule:nonzero;stroke:none"
           id="path1119" /></g></g></g></svg>