<?xml version="1.0" encoding="UTF-8" standalone="no"?>
<svg
   xmlns:dc="http://purl.org/dc/elements/1.1/"
   xmlns:cc="http://creativecommons.org/ns#"
   xmlns:rdf="http://www.w3.org/1999/02/22-rdf-syntax-ns#"
   xmlns:svg="http://www.w3.org/2000/svg"
   xmlns="http://www.w3.org/2000/svg"
   viewBox="0 0 100 100"
   height="100"
   width="100"
   xml:space="preserve"
   id="svg4923"
   version="1.1"><metadata
     id="metadata4929"><rdf:RDF><cc:Work
         rdf:about=""><dc:format>image/svg+xml</dc:format><dc:type
           rdf:resource="http://purl.org/dc/dcmitype/StillImage" /><dc:title></dc:title></cc:Work></rdf:RDF></metadata><defs
     id="defs4927" /><g
     transform="matrix(1.3333333,0,0,-1.3333333,0,100.00001)"
     id="g4931"><g
       transform="matrix(0.4241859,0,0,0.4241859,-3.3636958,-3.7159345)"
       id="g1020"><path
         style="fill:#231f20;fill-opacity:1;fill-rule:evenodd;stroke:none;stroke-width:0.13333333"
         d="M 128.84961,12.242188 11.701172,129.39062 128.84961,246.57227 246,129.39062 Z m 0,11.074218 L 234.95508,129.39062 128.84961,235.49609 22.746094,129.39062 Z"
         transform="matrix(0.75000002,0,0,-0.75000002,0,194.00001)"
         id="path4937" /><path
         style="fill:#231f20;fill-opacity:1;fill-rule:evenodd;stroke:none;stroke-width:0.13333333"
         d="m 100.00391,66.371094 c -1.05115,0.05096 -0.920295,0.730674 -0.109379,1.027344 1.329199,0.474666 6.076419,4.177562 10.126949,8.101562 4.05107,3.924 3.70309,4.525677 2.62696,7.152344 -1.076,2.626666 -6.77149,-1.550782 -6.77149,-1.550782 1.42454,-5.601333 -3.57617,-4.398437 -3.57617,-4.398437 0,-1.550667 -2.532286,-4.779641 -4.304686,-6.931641 -1.8032,-2.152 -2.025639,-4.398723 -3.576172,0.47461 -1.550533,4.905333 -0.126457,12.754307 0.474609,14.43164 0.6016,1.676 0.253772,1.802792 -1.423828,3.828125 -1.677066,2.025334 -2.878906,6.076172 -2.878906,6.076172 -1.645333,-0.378666 -1.644531,0.821 -1.644531,2.625 0,1.772 -0.729508,3.324219 -1.931641,3.324219 -1.1708,0 -1.423828,0.72771 -1.423828,2.37305 0,1.67733 -1.423161,4.90438 -2.246094,6.45508 -0.854133,1.55066 -1.329906,2.84822 -0.253906,3.10156 1.0756,0.22133 1.550534,1.17193 1.677734,3.19726 0.126534,2.02534 1.423485,2.5294 1.771485,4.30274 0.3796,1.80266 1.677734,1.55032 1.677734,2.84765 0,1.32934 0.346505,1.92945 1.201172,1.55079 0.822933,-0.34803 1.773476,0.12684 2.849609,0.85351 1.075467,0.69653 2.023858,2.0271 2.150391,2.97656 0.126533,0.91774 0.348248,1.64446 1.550781,1.16993 1.202667,-0.44323 2.50026,1.04346 4.050777,1.64453 1.55054,0.6016 1.55079,1.07737 1.55079,1.93164 0,0.82293 0.12603,1.16942 1.89843,0.56836 1.80374,-0.56974 1.67749,1.80468 2.62696,1.80468 0.94906,0 2.15209,0.82273 3.10156,2.02539 0.94893,1.20254 4.65039,2.2793 4.65039,2.2793 0.6016,6.64533 5,8.44727 5,8.44727 1.89893,2.02546 4.65262,3.57617 9.96875,3.57617 5.37987,0 6.93164,-3.10156 6.93164,-3.10156 2.02533,0 3.57611,-2.62597 4.05078,-3.92383 0.47333,-1.3292 1.80094,-4.65152 3.09961,-7.53125 1.29733,-2.8484 4.17773,-0.0937 4.17773,-0.0937 0.25203,-2.69014 1.35967,-2.97574 2.625,-3.35547 1.2667,-0.34787 2.37403,-1.39258 4.30469,-1.39258 1.93067,0 1.86673,-0.75853 2.02539,-1.64453 0.12667,-0.8864 1.17067,-1.55202 2.5,-0.66602 1.36,0.8864 0.44376,-1.45441 0.98242,-2.27734 0.50537,-0.82293 1.3904,-1.32832 2.1504,-1.16992 0.728,0.12653 1.70898,-0.31802 1.70898,-0.66602 0,-0.3796 0.88718,-1.13913 2.08984,-0.98047 1.17067,0.15734 2.27804,-2.53199 2.72071,-3.86132 0.44266,-1.32934 1.20301,-2.08755 2.15234,-2.43555 0.98,-0.38 1.64385,-3.03843 0.97852,-3.25977 -0.664,-0.25333 -1.10582,-0.91825 -0.75782,-2.40625 0.38,-1.456 0.0944,-3.10027 -1.26562,-3.54297 -1.32933,-0.44266 -0.12696,-2.2466 0.0957,-2.9746 0.22134,-0.728 -1.20272,-3.25855 -2.02539,-4.81055 -0.79067,-1.581338 -0.94938,-2.53022 -0.88672,-3.57422 0.096,-1.044 0.0954,-1.426307 -1.39258,-1.931641 -1.488,-0.506666 -1.70898,-0.664177 -1.70898,-2.214843 0,-1.582667 -0.98081,-1.361667 -1.99414,-2.375 -1.044,-1.044 -1.64563,-1.359438 -1.26563,-2.023438 0.348,-0.665333 1.61392,-0.949687 1.39258,-1.929687 -0.22133,-0.949334 0.22197,-3.324214 -0.2207,-4.685547 -0.444,-1.328 0.37942,-5.252058 1.10742,-7.025391 0.75867,-1.802666 -5.1e-4,-5.124594 -0.72851,-2.308594 -0.412,1.550667 -2.37282,7.721678 -3.13282,9.652344 -0.728,1.929333 -3.92337,4.36701 -2.7207,2.152344 1.17067,-2.216 4.52568,-10.411875 4.65234,-13.671875 0.15734,-3.258667 -0.57226,-2.152344 -0.57226,-2.152344 0,0 -1.13832,1.646146 -2.84766,3.132813 -1.676,1.488 -2.87833,2.753906 -3.98633,2.753906 -1.108,0 -1.70811,0.948364 -1.55078,1.707031 0.12667,0.729333 0.0633,2.881953 -1.58203,2.501953 -1.61467,-0.348 -2.05681,0.886032 -1.99414,1.582031 0.064,0.665337 -0.2207,1.773438 -0.2207,1.773438 -4.62,-2.089333 -4.6836,-5.064453 -4.6836,-5.064453 1.54934,-1.392 9.93584,-6.296938 11.20118,-6.960938 1.26533,-0.665333 7.65889,-4.526187 4.46289,-4.242187 -3.19734,0.285333 -12.18326,5.506036 -16.16993,7.720703 -4.01866,2.216 -5.94979,1.045156 -8.70312,0.285156 -2.75307,-0.728 -6.70898,0.824219 -6.70898,0.824219 -2.53123,-2.278667 -4.74595,-0.95025 -7.43555,0.09375 -2.6584,1.013333 -4.74741,-4.58e-4 -6.83594,-1.203125 -2.0568,-1.170667 -5.31651,-5.504307 -9.55664,-7.181641 -1.5902,-0.641 -2.64666,-0.837218 -3.27734,-0.80664 z m 23.52148,9.482422 c 0.48463,-0.02116 0.98144,0.0815 1.52734,0.4375 1.45574,0.949333 1.80478,0.696109 1.77344,2.912109 -0.0635,2.214667 2.4e-4,3.985406 0.91797,2.941406 0.85413,-1.076 0.5997,-0.662846 1.70703,0.285157 1.10774,0.949333 2.18399,1.329687 3.54492,1.929687 1.36014,0.601333 1.48737,2.152344 -0.0625,2.152344 -1.55106,0 -1.26619,-0.157802 -1.20312,1.519531 0.0317,1.645333 -0.95031,2.277349 -0.25391,3.416016 0.69587,1.170666 1.70808,1.773442 1.61328,2.912109 -0.0948,1.170667 0.15954,1.930953 0.69727,2.626953 0.56933,0.696 1.42399,1.550203 1.36133,2.658203 -0.064,1.138669 0.18887,1.613619 1.29687,2.626949 1.10667,1.012 0.85376,0.85456 3.73242,0.94922 2.88,0.12667 3.73553,0.37943 4.24219,1.10742 0.50667,0.76003 1.39275,1.74036 2.46875,1.92969 1.044,0.18934 2.56261,-0.25207 2.97461,0.69727 0.38,0.94933 1.61287,0.0645 2.6582,0.0645 1.044,0 3.06878,-1.86914 4.52344,-0.50781 1.456,1.36 2.47007,1.01137 2.69141,1.35937 0.18933,0.34934 1.54946,0.44532 2.46679,0.44532 0.8867,0 4.77924,-1.71037 4.11524,-0.0957 -0.66533,1.61334 -0.44337,1.29855 0.91797,2.31055 1.36,1.012 1.45508,1.35903 1.45508,3.06836 0,1.70933 -0.002,6.04515 -1.07618,5.50781 -1.044,-0.56933 -2.40429,-0.57031 -2.40429,-0.57031 0,0 -1.04492,0.7585 0.0937,1.20117 1.17066,0.476 0.22161,1.36265 -1.01172,1.58399 -1.20267,0.19066 -2.8477,-0.47629 -2.5957,1.01171 0.25333,1.456 -1.23228,0.72657 -2.18165,0.72657 -0.94933,0 -2.56548,-0.37839 -4.02148,1.48828 -1.45467,1.8356 -4.39602,3.60742 -7.05469,3.60742 -2.65866,0 -6.392,0.34835 -7.5,0.79102 -1.108,0.44333 -2.2161,0.44363 -1.77343,-1.74024 0.47466,-2.21533 -0.69503,-2.46766 1.93164,-3.98633 2.62666,-1.48666 5.88564,-3.32376 7.18164,-4.62109 1.32933,-1.32933 1.48828,-2.43624 1.48828,-4.24023 0,-1.80403 0.63153,-3.3217 2.6582,-3.06836 2.024,0.252 2.11999,0.0939 2.72266,-0.85547 0.6,-0.94934 1.01097,-1.5502 -0.31836,-1.51953 -1.29734,0.064 -7.50035,0.0639 -9.65235,-0.18946 -2.18266,-0.25333 -4.04891,-1.36046 -5.59961,0.15821 -1.54933,1.48666 -3.51269,1.10759 -4.08203,3.32226 -0.53866,2.21467 -0.75976,4.20899 -0.75976,4.20899 0,0 -0.50621,2.43819 -1.29688,0.38086 -0.82253,-2.08803 -1.17132,-2.7218 -1.86718,-2.3418 -0.6964,0.41066 -0.66563,3.13351 -1.80469,2.21484 -1.17094,-0.88533 -1.20276,-1.2031 -1.10742,-2.3418 0.0948,-1.17066 -0.88567,-1.42485 -0.98047,-0.38085 -0.0948,1.076 -0.3477,3.83071 0.2539,4.74804 0,0 -1.71012,0.34668 -2.72265,2.27735 -1.01307,1.89866 -1.20152,3.57762 -0.85352,5.98242 0.3484,2.37346 1.10734,5.44284 1.13867,7.21484 0.0635,1.77227 -0.0957,2.65824 -0.0957,2.6582 0,0 3.00604,-0.3802 4.71484,0.66407 1.70894,1.07613 1.86791,1.96195 0.25391,2.46875 -1.6136,0.50626 -3.73314,1.01148 -4.61914,0.0937 -0.85467,-0.88587 -1.39226,-1.64442 -3.00586,-1.23242 -1.614,0.3792 -2.02717,1.23219 -0.95117,3.44726 1.04427,2.2152 4.87415,4.74805 7.31055,4.74805 2.46826,0 4.87471,-1.424 5.88671,-5 1.01334,-3.576 1.67705,-5.38028 2.37305,-6.17188 0.696,-0.82293 1.96163,-0.50616 2.4043,1.23438 0,0 0.72696,4.49394 -1.23438,7.97461 -1.96133,3.4808 -2.72146,2.87947 -3.82812,2.8164 -1.108,-0.0636 -3.92422,-0.25332 -5.28516,0.31641 -1.3604,0.538 -6.48767,0.44278 -7.97461,-0.12695 -1.51933,-0.538 -3.54426,-1.1386 -5,-3.60743 -1.45573,-2.46813 -2.46917,-5.28472 -0.0957,-9.52539 0,0 -1.51815,-1.29709 -1.45508,-2.40429 0.0317,-1.10787 -0.31559,-1.35966 -1.32812,-1.48633 -0.9812,-0.0948 -0.79165,-2.30984 -3.07032,-2.05664 -2.24693,0.31613 -5.88545,0.34748 -6.32812,-0.72852 -0.47507,-1.10733 -1.33093,-1.61406 -2.2168,-1.20312 -0.91773,0.412 -2.972654,0.34895 -2.972654,-0.69531 0,-1.07574 -0.444982,-1.20313 -1.425782,-1.20313 -0.949466,0 -1.644695,0.34889 -3.226562,-1.35937 -1.550933,-1.70934 -3.323093,-3.07103 -2.94336,-4.4004 0.34787,-1.29733 0.284724,-2.56169 -0.474609,-4.20703 -0.759467,-1.67733 -1.013054,-2.02596 -1.867187,-0.91797 -0.854267,1.1067 -2.056814,1.6443 -2.310547,-0.0957 -0.253067,-1.772 -0.157734,-2.1211 0,-5.75976 0.158933,-3.608 0.697265,-1.70968 0.697265,-3.51368 0,-1.80266 -0.03123,-1.70679 1.234375,-2.46679 1.233867,-0.76 2.087064,-2.975758 2.466797,-5.982424 0.347867,-3.037334 1.392738,-3.637761 1.835938,-2.371094 0.474533,1.265333 1.234412,2.498443 3.132812,0.537109 1.930267,-1.962666 7.974844,-5.663317 11.392574,-6.833984 3.41774,-1.172 3.48045,-0.444745 2.21485,1.169922 -1.2656,1.581333 -3.41783,0.69612 -4.7793,2.689453 -1.3604,2.025333 -6.771038,6.456453 -7.878905,7.564453 C 95.939142,100.30979 94.483261,101.924 94.736328,103 c 0.253733,1.044 1.455994,0.97903 2.183594,1.70703 0.695867,0.696 0.444721,2.0899 -0.757813,2.97656 0,0 0.535971,1.73984 -0.476562,2.5625 -0.9812,0.792 -0.188798,1.45548 0.855469,1.99414 1.075466,0.56934 1.614903,1.61271 2.595703,0.22071 0.949471,-1.424 2.214441,-1.07595 2.720701,0.88672 0.47494,1.96133 0.47448,3.1953 1.29688,4.55664 0.7912,1.36 2.15261,1.29664 2.46875,0.69531 0.28493,-0.60133 0.60088,-1.36006 1.61328,-0.66406 1.01253,0.696 0.66586,1.20279 -0.22071,1.32812 -0.85413,0.096 -1.10772,1.58203 0.63282,1.58203 1.70893,0 2.24618,0.22271 3.35351,1.10938 1.1072,0.91733 2.5324,-0.47576 4.17774,1.51758 1.6776,2.0256 2.18428,3.92473 2.62695,6.51953 0.4432,2.62666 3.38567,4.43052 3.48047,2.18359 0.0953,-2.27813 0.60063,-4.20851 -0.75977,-4.05078 -1.36093,0.12667 -0.75896,-1.26519 0.0957,-1.32812 0.85413,-0.0319 2.30993,-1.61495 0.66406,-2.84961 -1.67653,-1.26534 -2.31055,-2.72071 -2.31055,-2.72071 0,0 -0.5998,-1.9618 -2.9414,-2.11914 -2.30987,-0.15866 -1.36227,-0.41291 -3.35547,-1.26758 -2.0256,-0.85466 -4.42964,-1.17096 -5.66407,-2.40429 -1.20199,-1.26667 -2.59468,-1.96181 -0.12695,-3.48047 2.4688,-1.51867 3.00673,-2.30956 3.70313,-0.60156 0.7276,1.708 1.73898,2.81559 4.49218,3.32226 2.7848,0.50667 4.93731,1.8669 5.09571,3.10156 0.15826,1.26534 1.13966,2.27804 1.20312,0.22071 0.0636,-2.08934 -0.75967,-5.75752 -2.15234,-6.99219 -1.424,-1.26533 -4.49382,-1.61328 -7.46875,-1.61328 -2.97453,0 -4.96875,0.0937 -4.96875,0.0937 0,0 -1.61328,0.41101 0.88672,-1.70899 2.5312,-2.12 4.74662,-4.6513 7.24609,-4.55664 2.53187,0.12667 6.10771,10e-4 7.05664,4.14649 0,0 0.82388,1.64459 0.66602,3.66992 -0.15827,2.024 0.53723,1.33008 2.40429,1.33008 1.8672,0 5.91716,-1.36259 6.92969,-0.91992 1.01254,0.44266 1.20369,-0.061 1.14063,-1.26368 -0.0317,-1.20266 1.51918,-2.40677 1.86718,-4.27343 0.348,-1.86667 0.31429,-2.05664 -0.76171,-2.05664 -1.04387,0 -2.0554,-0.91762 -2.3086,-2.62696 -0.25253,-1.707991 0.50558,-1.866326 -0.44336,-3.986326 -0.94946,-2.12 -1.67679,-3.829849 -2.18359,-5.728515 -0.4744,-1.930667 -0.98103,-3.068422 -1.42383,-3.732422 -0.44373,-0.665333 -1.23271,-1.774073 -1.35937,-0.191406 -0.0952,1.550666 -2.21573,2.088114 -1.86719,4.050781 0.3796,1.993333 0.63172,3.323354 -0.34961,4.304687 -0.94893,0.949334 -3.95567,3.76425 -2.6582,0.15625 1.29733,-3.638666 0.75976,-4.840135 0.75976,-6.105468 0,-1.266667 0.28428,-2.05911 1.45508,-2.78711 1.1708,-0.696 3.25996,-1.739312 2.2793,-3.195312 -1.01307,-1.486667 -1.77239,-1.963078 -1.86719,-3.955078 0,0 -0.2536,-1.899933 -1.36133,-0.697266 -1.10733,1.202667 -2.46849,3.038078 -2.78516,3.830078 -0.2844,0.822667 -0.6321,1.424688 -2.05664,1.804688 -1.42386,0.410666 -2.40322,1.358911 -3.73242,1.517578 -1.29733,0.158666 -3.51384,0.696578 -1.26758,-1.107422 2.27867,-1.802667 5.00066,-3.132354 6.04493,-4.429688 1.07613,-1.297333 0.98046,-1.10696 0.98046,-2.404297 0,-1.329333 -0.50456,-1.964213 0.95118,-2.185546 0.90983,-0.118334 1.68251,-0.49599 2.49023,-0.53125 z m 10.43945,0.560546 c 0.51716,-0.01022 0.9444,0.196875 0.86524,1.046876 -0.12534,1.329333 -0.41015,3.101906 3.22851,5.253906 3.608,2.184 4.55648,2.468349 7.11914,3.291015 2.59467,0.822667 3.48242,2.626198 9.84375,4.019532 0,0 2.40541,0.190198 1.80274,1.519531 -0.56933,1.361333 -0.57003,2.404651 -1.58203,1.833984 -0.98134,-0.6 -1.58203,-2.246666 -1.58203,0 0,2.216 -0.28459,3.955824 -1.16993,2.785156 -0.85466,-1.170666 -1.26584,-0.917682 -2.08984,-0.791015 -0.82267,0.09467 -0.82313,-2.121271 0.1582,-1.835938 1.01334,0.285334 1.64649,0.190198 1.64649,-0.980468 0,-1.170667 -0.82364,-2.880927 -1.93164,-2.183594 -1.10667,0.726667 -2.49961,0.75964 -3.09961,-0.568359 -0.57067,-1.361335 -1.93032,-2.21737 -4.20899,-2.470704 -2.27866,-0.221333 -2.91331,-0.061 -4.08398,-1.263672 -1.17067,-1.234666 -1.70766,-1.362427 -1.48633,-2.121093 0.25333,-0.76 -0.85461,-1.519531 -1.61328,-1.519531 -0.792,0 -3.57596,-1.64574 -3.92383,-2.816407 -0.3484,-1.170666 -1.17217,-2.087031 -1.93164,-1.707031 -0.75987,0.410667 -1.77148,0.536021 -1.77148,-0.445312 0,-1.012001 -0.25256,-1.075886 1.23437,-0.949219 1.51934,0.126666 2.87881,0.221786 3.63867,0.06445 0.28465,-0.0715 0.62721,-0.155976 0.9375,-0.16211 z m 23.7461,17.820313 c 0.24427,0.0232 0.57272,0.141656 1.01172,0.378906 2.34133,1.297334 3.54539,2.214839 4.52539,3.576172 0.98133,1.329333 1.42382,2.308767 1.42383,3.384767 0,1.044 -0.22204,1.36139 0.91796,2.02539 1.10667,0.69733 1.64603,1.80469 0.44336,1.80469 -1.20266,0 -2.11914,0.47461 -2.11914,0.47461 -1.96266,0.82266 -0.82335,-0.53751 -0.66601,-1.07618 0.15866,-0.50533 -0.75908,-1.26562 -1.45508,-1.26562 -0.66533,0 -1.48679,-1.20267 -1.32813,-2.5 0.12667,-1.265334 -0.85483,-4.368516 -2.4375,-3.228516 0,0 -1.26625,1.424057 -1.04492,-0.47461 0.17984,-1.516666 -0.32998,-3.20016 0.72852,-3.099609 z M 145.82422,111.1582 c 0.73872,0.0275 1.03667,0.67873 0.9375,1.58789 -0.12667,1.488 0.85518,1.48674 -0.41016,2.94141 -1.29866,1.488 -1.67866,3.13448 -3.86133,3.00781 -2.184,-0.15733 -5.3496,-0.66411 -5.34961,0.94922 0,1.61467 -0.2215,2.97328 -1.07617,1.61328 0,0 -0.25304,-1.42365 0.12696,-2.84765 0.38,-1.42534 0.16015,-3.29102 0.16015,-3.29102 0,0 5.63225,-1.89843 7.65625,-3.25976 0.7715,-0.51052 1.37317,-0.71769 1.81641,-0.70118 z"
         transform="matrix(0.75000002,0,0,-0.75000002,0,194.00001)"
         id="path4941" /><path
         id="path4943"
         style="fill:#231f20;fill-opacity:1;fill-rule:evenodd;stroke:none;stroke-width:0.1"
         d="m 123.718,57.0367 3.038,3.7735 h 2.872 l 2.967,2.9906 h -3.442 l 7.856,9.8496 h 9.066 l -2.8,-2.7059 h -5.388 l -2.468,-3.1566 h 4.58 L 128.821,57.0367 h -5.103" /><path
         id="path4945"
         style="fill:#231f20;fill-opacity:1;fill-rule:evenodd;stroke:none;stroke-width:0.1"
         d="m 119.137,57.0367 9.256,14.0981 h -2.183 l 1.59,2.5156 h 7.856 l -1.851,-2.5156 h -1.97 L 121.226,57.0367 h -2.089" /><path
         id="path4947"
         style="fill:#231f20;fill-opacity:1;fill-rule:evenodd;stroke:none;stroke-width:0.1"
         d="m 110.925,57.0367 7.121,16.6137 h 3.251 l -5.933,-12.3652 h 1.163 l 7.143,12.3652 h 2.848 L 116.147,57.0367 h -5.222" /><path
         style="fill:#231f20;fill-opacity:1;fill-rule:evenodd;stroke:none;stroke-width:0.13333333"
         d="m 142.90039,160.4668 -4.42969,22.15039 h 7.53125 l 8.19532,-22.15039 z m 3.32422,4.58789 h 2.24609 l -3.83008,12.34179 h -1.23437 z"
         transform="matrix(0.75000002,0,0,-0.75000002,0,194.00001)"
         id="path4949" /><path
         id="path4951"
         style="fill:#231f20;fill-opacity:1;fill-rule:evenodd;stroke:none;stroke-width:0.1"
         d="m 96.709,57.0367 -0.0473,16.6137 h 8.4963 l -1.092,-6.0047 h -2.563 l 0.38,2.8719 H 99.3672 L 99.2246,60.4543 h 1.3054 l 0.237,1.7562 h 2.303 l -0.926,-5.1738 h -5.435" /><path
         id="path4953"
         style="fill:#231f20;fill-opacity:1;fill-rule:evenodd;stroke:none;stroke-width:0.1"
         d="m 89.7078,57.0367 -0.6648,2.8719 h 3.7738 l -0.3324,3.75 h -4.3192 l -2.3261,9.9918 h 8.5679 l 0.1422,-3.1566 h -4.889 l 0.6406,-3.4653 h 4.391 l 0.4746,-9.9918 h -5.4586" /><path
         style="fill:#231f20;fill-opacity:1;fill-rule:evenodd;stroke:none;stroke-width:0.13333333"
         d="m 94.990234,160.4668 12.087886,22.15039 h 7.40626 l -3.98829,-10.72657 -1.48632,-0.72851 0.69531,-1.42383 -3.41797,-9.27148 z m 6.771486,4.71484 h 1.99414 l 1.77148,4.17774 h -1.70898 z m 5.0957,10.34766 h 1.35938 l 1.42578,3.35351 h -1.13867 z"
         transform="matrix(0.75000002,0,0,-0.75000002,0,194.00001)"
         id="path4955" /><path
         id="path4957"
         style="fill:#231f20;fill-opacity:1;fill-rule:evenodd;stroke:none;stroke-width:0.1"
         d="M 73.2125,57.0367 59.4707,73.6504 h 3.6551 l 9.0426,-11.9621 h 1.4714 l -7.6421,11.9621 h 3.2988 l 9.3984,-16.6137 h -5.4824" /><path
         id="path4959"
         style="fill:#231f20;fill-opacity:1;fill-rule:evenodd;stroke:none;stroke-width:0.1"
         d="M 66.1164,57.0367 49.2418,73.6504 h 8.3543 l 5.6484,-6.6219 H 60.3488 L 58.023,69.6156 H 56.1246 L 66.591,59.3152 h 1.4 l -2.634,2.6821 h 2.1836 l 4.2481,-4.9606 h -5.6723" /><path
         id="path4961"
         style="fill:#231f20;fill-opacity:1;fill-rule:evenodd;stroke:none;stroke-width:0.1"
         d="m 98.0145,28.6273 c 0,0 -0.4274,2.1836 -3.1329,2.1836 -2.7058,0 -3.9398,0.427 -3.9398,2.2786 0,1.8746 1.5664,2.3968 2.5395,0.8781 0,0 0.2609,2.1125 1.7328,2.5156 0,0 -0.5461,2.9191 -2.4922,2.9191 -1.9699,0 -2.516,-1.7324 -2.1836,-3.1562 0,0 -3.7973,0.9965 -3.7973,5.2215 0,4.248 4.557,4.5804 7.0727,1.9695 0,0 0.4273,5.5539 4.2008,9.0188 3.8215,-3.4649 4.2485,-9.0188 4.2485,-9.0188 2.516,2.6109 7.072,2.2785 7.072,-1.9695 0,-4.225 -3.797,-5.2215 -3.797,-5.2215 0.308,1.4238 -0.214,3.1562 -2.183,3.1562 -1.971,0 -2.493,-2.9191 -2.493,-2.9191 1.472,-0.4031 1.733,-2.5156 1.733,-2.5156 0.973,1.5187 2.539,0.9965 2.539,-0.8781 0,-1.8516 -1.234,-2.2786 -3.963,-2.2786 -2.7296,0 -3.1565,-2.1836 -3.1565,-2.1836" /><path
         id="path4977"
         style="fill:#231f20;fill-opacity:1;fill-rule:evenodd;stroke:none;stroke-width:0.1"
         d="m 67.2555,110.105 c 0,0 -0.7594,0.855 -0.3086,1.021 0.4746,0.166 1.6379,1.21 1.9699,0.356 0.3324,-0.855 -0.973,-1.567 -1.6613,-1.377" /><path
         id="path4979"
         style="fill:#231f20;fill-opacity:1;fill-rule:evenodd;stroke:none;stroke-width:0.1"
         d="m 69.7715,112.146 c 0,0 -0.8785,0.072 -1.3055,0.522 -0.4273,0.452 -0.7594,0.261 0.0238,1.211 0.7832,0.949 0.9965,0.593 1.5188,-0.095 0.5223,-0.688 1.068,-2.16 -0.2371,-1.638" /></g></g></svg>